<svg width="22" height="21" viewBox="0 0 22 21" fill="none" xmlns="http://www.w3.org/2000/svg">
<path d="M18.8136 3.06923C16.8751 1.13077 14.2905 0 11.3828 0C8.47512 0 5.8905 1.21154 3.95204 3.06923C2.01358 5.00769 0.882812 7.59231 0.882812 10.5C0.882812 13.4077 2.09435 15.9923 3.95204 17.9308C5.8905 19.8692 8.47512 21 11.3828 21C14.2905 21 16.8751 19.7885 18.8136 17.9308C20.752 15.9923 21.8828 13.4077 21.8828 10.5C21.8828 7.59231 20.6713 5.00769 18.8136 3.06923ZM16.552 15.6692C15.179 17.0423 13.3213 17.7692 11.3828 17.7692C9.44435 17.7692 7.58666 17.0423 6.21358 15.6692C4.8405 14.2962 4.11358 12.4385 4.11358 10.5C4.11358 8.56154 4.8405 6.70385 6.21358 5.33077C7.58666 3.95769 9.44435 3.23077 11.3828 3.23077C13.3213 3.23077 15.179 3.95769 16.552 5.33077C17.9251 6.70385 18.652 8.56154 18.652 10.5C18.652 12.4385 17.9251 14.2962 16.552 15.6692Z" fill="#24528F"/>
<path d="M12.1903 4.84625H10.5749C10.0903 4.84625 9.76721 5.16933 9.76721 5.65394V7.26933C9.76721 7.75394 10.0903 8.07702 10.5749 8.07702H12.1903C12.6749 8.07702 12.998 7.75394 12.998 7.26933V5.65394C12.998 5.16933 12.6749 4.84625 12.1903 4.84625Z" fill="#24528F"/>
<path d="M12.1903 9.6925H10.5749C10.0903 9.6925 9.76721 10.0156 9.76721 10.5002V15.3464C9.76721 15.831 10.0903 16.154 10.5749 16.154H12.1903C12.6749 16.154 12.998 15.831 12.998 15.3464V10.5002C12.998 10.0156 12.6749 9.6925 12.1903 9.6925Z" fill="#24528F"/>
</svg>
