<svg width="4" height="7" viewBox="0 0 4 7" fill="none" xmlns="http://www.w3.org/2000/svg">
<path d="M1.92157 0.0390072L0.0167605 2.65836C-0.00333522 2.68609 -0.00543051 2.72204 0.0108556 2.75167C0.0273322 2.78138 0.0597139 2.79999 0.0951434 2.79999L3.90476 2.79999C3.94019 2.79999 3.97267 2.78138 3.98914 2.75167C3.99638 2.73848 4 2.72403 4 2.70967C4 2.69169 3.99429 2.67381 3.98314 2.65836L2.07833 0.0390072C2.06052 0.0145297 2.03129 -1.21593e-05 1.99995 -1.21593e-05C1.96862 -1.21593e-05 1.93938 0.0146201 1.92157 0.0390072Z" fill="#828282"/>
<path d="M2.07843 6.96099L3.98324 4.34164C4.00334 4.31391 4.00543 4.27796 3.98914 4.24833C3.97267 4.21862 3.94029 4.20001 3.90486 4.20001L0.0952404 4.20001C0.0598109 4.20001 0.0273342 4.21862 0.0108576 4.24833C0.00361919 4.26152 0 4.27597 0 4.29033C0 4.30831 0.00571442 4.32619 0.0168576 4.34164L1.92167 6.96099C1.93948 6.98547 1.96871 7.00001 2.00005 7.00001C2.03138 7.00001 2.06062 6.98538 2.07843 6.96099Z" fill="#828282"/>
</svg>
