<svg width="21" height="21" viewBox="0 0 21 21" fill="none" xmlns="http://www.w3.org/2000/svg">
<path fill-rule="evenodd" clip-rule="evenodd" d="M20.9343 9.3341C20.9011 9.0389 20.5569 8.81708 20.2593 8.81708C19.297 8.81708 18.4431 8.25208 18.085 7.37829C17.7192 6.48333 17.9551 5.4396 18.6722 4.78178C18.898 4.57543 18.9254 4.22999 18.7361 3.99004C18.2436 3.36464 17.6838 2.79973 17.0726 2.31013C16.8333 2.11807 16.4821 2.1448 16.2746 2.37459C15.6487 3.06773 14.5245 3.32534 13.6557 2.96287C12.7517 2.58259 12.1816 1.66653 12.2374 0.683199C12.2558 0.374331 12.03 0.10578 11.7221 0.0699157C10.9377 -0.0207993 10.1465 -0.0236122 9.35983 0.0636649C9.05541 0.097263 8.82967 0.359485 8.83991 0.664447C8.87413 1.63809 8.29717 2.53813 7.40211 2.90474C6.54377 3.25533 5.42742 2.99991 4.80279 2.31294C4.59636 2.08666 4.25091 2.05885 4.01041 2.24629C3.38109 2.74003 2.80873 3.30542 2.3117 3.92566C2.11785 4.16678 2.14637 4.51628 2.37437 4.72373C3.10519 5.38553 3.34116 6.43833 2.96149 7.3436C2.59901 8.20668 1.70278 8.76293 0.676762 8.76293C0.34382 8.75222 0.106674 8.97569 0.0702617 9.27839C-0.0220964 10.0672 -0.0231904 10.871 0.0657297 11.6663C0.0987036 11.9627 0.453368 12.1826 0.754274 12.1826C1.66864 12.1592 2.54651 12.7253 2.91477 13.6215C3.28186 14.5164 3.04588 15.5595 2.32764 16.2179C2.103 16.4242 2.07448 16.7691 2.26381 17.0091C2.75169 17.6305 3.31155 18.196 3.92492 18.6896C4.16551 18.8835 4.51556 18.8561 4.72411 18.6263C5.35233 17.9315 6.47649 17.6743 7.34178 18.0375C8.2481 18.4166 8.81818 19.3326 8.76239 20.3165C8.74419 20.6255 8.97102 20.8945 9.27771 20.9298C9.67894 20.9766 10.0826 21 10.4874 21C10.8716 21 11.2558 20.9789 11.64 20.9362C11.9445 20.9026 12.1701 20.6403 12.1599 20.3348C12.1246 19.3617 12.7026 18.4617 13.5965 18.0957C14.4606 17.7428 15.5723 18.0011 16.197 18.6874C16.4046 18.9132 16.7476 18.9404 16.9895 18.7536C17.6176 18.261 18.1888 17.6961 18.6882 17.0742C18.8819 16.8336 18.8546 16.4835 18.6254 16.2762C17.8946 15.6144 17.6575 14.5614 18.0371 13.6568C18.3941 12.8052 19.257 12.2334 20.1852 12.2334L20.3151 12.2367C20.6161 12.2612 20.8931 12.0293 20.9296 11.722C21.0221 10.9324 21.0232 10.1294 20.9343 9.3341ZM10.5167 14.0246C8.58526 14.0246 7.01423 12.4536 7.01423 10.5222C7.01423 8.59095 8.58526 7.01989 10.5167 7.01989C12.448 7.01989 14.019 8.59095 14.019 10.5222C14.019 12.4536 12.448 14.0246 10.5167 14.0246Z" fill="#255390"/>
</svg>
