<svg width="23" height="15" viewBox="0 0 23 15" fill="none" xmlns="http://www.w3.org/2000/svg">
<path d="M16.4161 5.17461C16.4113 5.10577 16.4361 5.03791 16.485 4.9861L18.6963 2.64089C18.7451 2.58907 18.8141 2.55747 18.888 2.55302C18.9622 2.54861 19.0347 2.5717 19.0902 2.61724C20.1063 3.44986 20.9497 4.43179 21.5971 5.53574C21.6326 5.59632 21.6409 5.66754 21.6201 5.73372C21.5993 5.79993 21.5511 5.85574 21.4861 5.88882L18.5471 7.38645C18.5046 7.40813 18.4587 7.4184 18.4134 7.4184C18.3147 7.4184 18.219 7.36942 18.1683 7.28296C17.7404 6.55327 17.1825 5.90406 16.5104 5.35329C16.4547 5.30781 16.4208 5.24353 16.4161 5.17461Z" fill="#F2AE4B"/>
<path d="M15.4293 4.30569C15.3792 4.3938 15.2825 4.444 15.1825 4.444C15.1384 4.444 15.0936 4.43423 15.052 4.41363C14.2642 4.02415 13.4167 3.77002 12.5331 3.65826C12.3803 3.63895 12.2733 3.50786 12.294 3.36544L12.7442 0.271388C12.7649 0.12901 12.9059 0.0293384 13.0583 0.048502C14.4002 0.218171 15.687 0.604035 16.883 1.19537C17.0192 1.26271 17.071 1.42015 16.9988 1.54715L15.4293 4.30569Z" fill="#F2AE4B"/>
<path d="M19.0245 8.49293L22.2571 7.67531C22.3285 7.6573 22.4048 7.66637 22.469 7.70071C22.5332 7.73504 22.5801 7.79173 22.5996 7.85833C22.8652 8.77145 23 9.71786 23 10.6713C23 10.8344 22.9958 10.9981 22.9871 11.1717C22.9802 11.3112 22.8568 11.4198 22.7085 11.4198C22.7042 11.4198 22.6997 11.4198 22.6954 11.4196L19.3495 11.2755C19.2755 11.2723 19.2059 11.2418 19.1561 11.1909C19.1062 11.1399 19.0801 11.0724 19.0836 11.0035C19.0894 10.8865 19.0922 10.7778 19.0922 10.6713C19.0922 10.04 19.0033 9.4145 18.8281 8.81216C18.7878 8.6735 18.8757 8.53059 19.0245 8.49293Z" fill="#F2AE4B"/>
<path d="M6.51182 1.00978C7.72986 0.462374 9.03126 0.12314 10.3799 0.0012918C10.454 -0.00564492 10.5271 0.0155855 10.5843 0.059413C10.6414 0.103275 10.6775 0.166477 10.6847 0.235214L11.0076 3.34314C11.0225 3.48615 10.9101 3.61336 10.7567 3.6272C9.86779 3.70746 9.01052 3.93091 8.20865 4.29123C8.1705 4.3084 8.12905 4.31709 8.08745 4.31709C8.05641 4.31709 8.02529 4.31222 7.99537 4.30251C7.92551 4.27978 7.86816 4.23203 7.83603 4.16988L6.38163 1.35711C6.31463 1.22769 6.37292 1.07214 6.51182 1.00978Z" fill="#F2AE4B"/>
<path d="M1.5923 5.37458C1.57426 5.30763 1.58538 5.23682 1.62342 5.17755C2.31611 4.09728 3.19931 3.14617 4.24839 2.3508C4.30586 2.30729 4.37918 2.2869 4.4531 2.2938C4.52672 2.30091 4.59433 2.33493 4.64101 2.38846L6.75446 4.81085C6.80114 4.86441 6.82316 4.93304 6.81553 5.00168C6.80798 5.07031 6.77145 5.13333 6.71399 5.17692C6.01986 5.70309 5.43566 6.33216 4.97755 7.04664C4.92523 7.12813 4.83267 7.1734 4.73767 7.1734C4.68892 7.1734 4.63958 7.16148 4.59474 7.13647L1.71974 5.53444C1.65626 5.49902 1.61041 5.44153 1.5923 5.37458Z" fill="#F2AE4B"/>
<path d="M0.52447 7.46279C0.57062 7.32563 0.727295 7.24922 0.874276 7.29228L4.07049 8.22587C4.21762 8.26882 4.29947 8.4148 4.2534 8.55189C4.024 9.23456 3.90769 9.94761 3.90769 10.6712C3.90769 10.7778 3.91054 10.8865 3.91633 11.0035C3.91979 11.0724 3.89371 11.1398 3.8438 11.1908C3.79393 11.2418 3.72437 11.2723 3.65044 11.2754L0.304545 11.4195C0.30011 11.4197 0.295752 11.4198 0.291392 11.4198C0.143171 11.4198 0.0197544 11.3111 0.0127645 11.1717C0.0041585 10.9981 -9.01222e-05 10.8344 -9.01222e-05 10.6712C-1.4782e-05 9.57768 0.176392 8.49822 0.52447 7.46279Z" fill="#F2AE4B"/>
<path d="M11.5098 10.1188C11.5579 10.1188 11.6058 10.1203 11.6535 10.1227L16.1877 7.62879C16.2986 7.56766 16.4395 7.58297 16.5325 7.6661C16.6255 7.74917 16.6479 7.87977 16.5872 7.98565L14.1138 12.3073C14.1229 12.3905 14.1277 12.4745 14.1277 12.5593C14.1277 13.2112 13.8554 13.8241 13.361 14.285C12.8665 14.746 12.209 14.9999 11.5097 14.9999C10.8104 14.9999 10.153 14.7459 9.65854 14.285C9.16405 13.8241 8.89177 13.2112 8.89177 12.5593C8.89177 11.9074 9.16409 11.2946 9.65854 10.8336C10.153 10.3727 10.8105 10.1188 11.5098 10.1188Z" fill="#F2AE4B"/>
</svg>
