<svg width="15" height="10" viewBox="0 0 15 10" fill="none" xmlns="http://www.w3.org/2000/svg">
<path d="M10.7061 3.44965C10.703 3.40376 10.7192 3.35852 10.7511 3.32397L12.1932 1.7605C12.2251 1.72596 12.2701 1.70489 12.3183 1.70192C12.3667 1.69898 12.4139 1.71437 12.4502 1.74474C13.1128 2.29981 13.6629 2.95444 14.0851 3.69041C14.1082 3.73079 14.1137 3.77827 14.1001 3.82239C14.0865 3.86653 14.0551 3.90374 14.0127 3.92579L12.0959 4.92421C12.0682 4.93867 12.0383 4.94551 12.0087 4.94551C11.9444 4.94551 11.8819 4.91286 11.8489 4.85522C11.5698 4.36876 11.206 3.93595 10.7676 3.56877C10.7313 3.53845 10.7092 3.49559 10.7061 3.44965Z" fill="#828282"/>
<path d="M10.0624 2.87061C10.0297 2.92935 9.96659 2.96282 9.90137 2.96282C9.8726 2.96282 9.84341 2.95631 9.81625 2.94257C9.30248 2.68292 8.74978 2.5135 8.17348 2.43899C8.07388 2.42612 8.00405 2.33873 8.01755 2.24378L8.31116 0.181078C8.32466 0.0861593 8.41665 0.0197115 8.51601 0.0324873C9.3912 0.1456 10.2304 0.402843 11.0104 0.797069C11.0992 0.841959 11.133 0.946921 11.086 1.03159L10.0624 2.87061Z" fill="#828282"/>
<path d="M12.4072 5.66202L14.5155 5.11693C14.5621 5.10493 14.6118 5.11098 14.6537 5.13387C14.6956 5.15676 14.7262 5.19454 14.7388 5.23894C14.9121 5.84769 15 6.47863 15 7.11424C15 7.22301 14.9973 7.33213 14.9916 7.44786C14.9871 7.54084 14.9066 7.61329 14.8099 7.61329C14.8071 7.61329 14.8042 7.61324 14.8013 7.6131L12.6192 7.51704C12.571 7.51494 12.5256 7.49462 12.4931 7.46064C12.4606 7.42665 12.4435 7.38169 12.4458 7.33575C12.4496 7.25772 12.4514 7.18525 12.4514 7.11424C12.4514 6.69337 12.3935 6.27639 12.2792 5.87483C12.2529 5.78239 12.3102 5.68712 12.4072 5.66202Z" fill="#828282"/>
<path d="M4.2469 0.673187C5.04128 0.308249 5.89003 0.0820933 6.76956 0.000861204C6.81789 -0.00376328 6.86559 0.0103904 6.90287 0.0396087C6.94015 0.0688504 6.96368 0.110985 6.96833 0.156809L7.17895 2.22877C7.18865 2.3241 7.11537 2.40891 7.0153 2.41814C6.43559 2.47164 5.8765 2.62061 5.35354 2.86082C5.32866 2.87227 5.30162 2.87806 5.27449 2.87806C5.25425 2.87806 5.23395 2.87481 5.21444 2.86835C5.16888 2.85319 5.13148 2.82135 5.11052 2.77992L4.162 0.904738C4.11829 0.818461 4.15631 0.71476 4.2469 0.673187Z" fill="#828282"/>
<path d="M1.03835 3.58315C1.02658 3.53851 1.03384 3.49131 1.05864 3.45179C1.51041 2.73161 2.08641 2.09754 2.7706 1.56729C2.80807 1.53828 2.85589 1.52469 2.9041 1.52929C2.95212 1.53403 2.99621 1.55671 3.02665 1.5924L4.40501 3.20732C4.43545 3.24304 4.44981 3.28879 4.44483 3.33454C4.43991 3.3803 4.41608 3.42232 4.37861 3.45137C3.92591 3.80215 3.54491 4.22153 3.24614 4.69786C3.21202 4.75218 3.15165 4.78236 3.08969 4.78236C3.0579 4.78236 3.02572 4.77442 2.99648 4.75774L1.12146 3.68972C1.08007 3.66611 1.05016 3.62778 1.03835 3.58315Z" fill="#828282"/>
<path d="M0.341925 4.97522C0.372023 4.88379 0.474204 4.83285 0.570061 4.86155L2.65457 5.48394C2.75052 5.51258 2.8039 5.6099 2.77385 5.70129C2.62425 6.15641 2.54839 6.63177 2.54839 7.11419C2.54839 7.18521 2.55025 7.25769 2.55403 7.3357C2.55628 7.38164 2.53927 7.4266 2.50672 7.46058C2.4742 7.49459 2.42883 7.51488 2.38062 7.51699L0.198495 7.61305C0.195603 7.61317 0.19276 7.61324 0.189917 7.61324C0.0932505 7.61324 0.0127606 7.54076 0.00820184 7.4478C0.00258899 7.33208 -0.000181437 7.22296 -0.000181437 7.11419C-0.000132561 6.38515 0.114916 5.66551 0.341925 4.97522Z" fill="#828282"/>
<path d="M7.50634 6.74598C7.53774 6.74598 7.56896 6.74696 7.60006 6.74855L10.5572 5.08595C10.6295 5.0452 10.7214 5.0554 10.7821 5.11083C10.8427 5.1662 10.8573 5.25327 10.8177 5.32386L9.20464 8.20493C9.21057 8.26043 9.21374 8.31646 9.21374 8.37298C9.21374 8.80759 9.03614 9.21615 8.71366 9.52345C8.39116 9.83077 7.96239 10 7.50631 10C7.05024 10 6.62149 9.83072 6.29901 9.52345C5.97652 9.21615 5.79894 8.80759 5.79894 8.37298C5.79894 7.93837 5.97654 7.52981 6.29901 7.22251C6.62149 6.91522 7.05029 6.74598 7.50634 6.74598Z" fill="#828282"/>
</svg>
