<svg width="105" height="43" viewBox="0 0 105 43" fill="none" xmlns="http://www.w3.org/2000/svg">
<path d="M1 24.8525C2.68488 22.0094 3.2823 20.2484 4.4477 23.7758C4.92359 25.2162 5.0624 27.7377 5.64482 28.7451C7.20313 31.4403 7.22239 36.5382 8.75732 31.8923C9.90115 28.4301 11.5466 33.0149 13.2824 32.3478C16.0355 31.2896 16.8879 33.8684 18.6695 36.7787C19.7178 38.4912 21.6669 42.1299 22.9791 41.9964C24.7057 41.8208 25.2331 35.5051 27.0972 34.5839C28.1382 34.0695 28.9465 36.014 29.8745 35.1223C30.4337 34.5849 30.4635 32.6009 30.9758 32.3478C31.8068 31.9371 31.3679 33.7143 31.8138 33.7143C33.0366 33.7143 32.9378 32.4072 33.8489 34.3769C34.6995 36.2159 35.9816 35.1605 36.7699 33.7971C38.0383 31.6032 39.9275 30.9211 41.3189 28.9521C42.5451 27.2169 45.2149 24.482 46.7778 23.9414C48.2101 23.446 48.9294 26.2604 49.9621 26.2604C50.818 26.2604 53.0488 24.1318 53.5774 22.989C54.4043 21.2013 55.5948 24.3669 56.3787 24.0657C57.6064 23.5938 58.8313 19.4923 59.7066 17.9783C60.5448 16.5287 62.4127 11.5183 63.705 11.5183C64.0906 11.5183 66.69 13.8199 67.033 14.2514C68.2302 15.7573 69.9115 18.3143 71.2469 19.4691C73.5716 21.4796 75.9198 14.7971 77.8789 13.7544C79.1581 13.0737 78.5288 18.0167 80.2971 16.4875C80.9971 15.8821 81.3739 14.7221 82.2125 14.4584C83.388 14.0888 83.5808 16.9448 84.4152 17.3572C86.2951 18.2862 88.5641 14.0797 89.8261 12.1394C90.595 10.9573 93.8147 6.18567 94.9498 8.03979C95.9495 9.67279 97.0706 12.1896 98.182 9.19928C99.4023 5.91608 102.127 2.61985 104 1" stroke="url(#paint0_linear_2_94)" stroke-width="1.5" stroke-linecap="round" stroke-linejoin="round"/>
<defs>
<linearGradient id="paint0_linear_2_94" x1="-2.5" y1="24.5" x2="104" y2="13" gradientUnits="userSpaceOnUse">
<stop stop-color="#2D9CDB"/>
<stop offset="1" stop-color="#255F80"/>
</linearGradient>
</defs>
</svg>
