<svg width="69" height="56" viewBox="0 0 69 56" fill="none" xmlns="http://www.w3.org/2000/svg">
<path d="M44.85 42.2858H24.15C23.46 42.2858 23 42.7429 23 43.4286V50.2857C23 50.9714 23.46 51.4285 24.15 51.4285H44.85C45.5399 51.4285 45.9999 50.9714 45.9999 50.2857V43.4286C45.9999 42.7429 45.5399 42.2858 44.85 42.2858ZM43.7 49.1429H25.2999V44.5715H43.6999V49.1429H43.7Z" fill="#FF3300"/>
<path d="M45.4251 21.8288L39.9051 25.1431C37.95 26.2859 35.88 27.3145 33.9251 28.2288C33.3501 28.4574 32.6601 28.8003 31.9701 29.1431C29.5551 30.4003 28.29 33.0288 28.8651 35.6574C29.325 37.7146 31.05 39.4289 33.12 39.886C33.58 40.0002 34.0401 40.0002 34.5 40.0002C36.685 40.0002 38.64 38.743 39.675 36.8002C39.9051 36.2288 40.2501 35.5431 40.5951 34.8573C41.6301 32.9144 42.5501 30.8573 43.7001 28.9145L47.0351 23.4288C47.2652 22.9717 47.1501 22.5145 46.8051 22.0574C46.4601 21.6001 45.885 21.6001 45.4251 21.8288ZM41.745 27.6573C40.48 29.7145 39.445 31.7716 38.5251 33.8288C38.295 34.5145 37.95 35.086 37.605 35.7717C36.915 37.2573 35.305 37.9431 33.6951 37.6002C32.43 37.3716 31.395 36.343 31.1651 35.086C30.8201 33.4859 31.5101 31.886 33.0051 31.2003C33.5801 30.8574 34.2701 30.6288 34.9601 30.2859C37.0301 29.2574 39.2151 28.2288 41.1701 27.086L42.6651 26.1717L41.745 27.6573Z" fill="#FF3300"/>
<path d="M66.5363 21.5993C66.5218 21.5223 66.5 21.4459 66.47 21.3714C66.44 21.2967 66.4017 21.2282 66.3572 21.1656C64.634 17.0652 62.1303 13.3622 59.033 10.2417C58.9893 10.1771 58.9385 10.1152 58.88 10.0571C58.8216 9.99898 58.7593 9.94849 58.6943 9.9051C52.4552 3.78924 43.9018 -1.79836e-07 34.5 -1.79836e-07C29.9964 -1.79836e-07 25.6878 0.870536 21.7343 2.44835C21.6568 2.46281 21.5799 2.48451 21.5051 2.51424C21.43 2.54411 21.361 2.58214 21.298 2.62634C17.172 4.33889 13.4458 6.82701 10.3058 9.9051C10.2408 9.94849 10.1786 9.99898 10.1201 10.0571C10.0616 10.1152 10.0107 10.1771 9.96713 10.2417C3.81292 16.442 0 24.9423 0 34.2857C0 42.0572 2.52995 49.4857 7.47504 55.5429C7.70509 55.8858 8.05009 56 8.39509 56H60.605C60.95 56 61.295 55.8858 61.5251 55.5429C66.47 49.4858 69 42.0572 69 34.2857C69 29.8101 68.124 25.5283 66.5363 21.5993ZM60.145 53.7144H8.97C7.41494 51.7215 6.12348 49.5835 5.1029 47.3372L8.28 46.0573C8.85504 45.8287 9.08496 45.1429 8.85505 44.5716C8.625 44.0001 7.935 43.7716 7.36009 44.0001L4.24566 45.2549C3.09018 42.1287 2.44061 38.8235 2.32147 35.4287H10.35C11.04 35.4287 11.5 34.9716 11.5 34.2859C11.5 33.6002 11.04 33.1429 10.35 33.1429H2.32296C2.45193 29.5393 3.18761 26.0829 4.43177 22.8714L7.59 24.2286C7.70496 24.3429 7.935 24.3429 8.04996 24.3429C8.50991 24.3429 8.85491 24.1143 9.08496 23.6572C9.315 23.0857 9.08496 22.4 8.50991 22.1715L5.31974 20.8005C6.7616 17.7427 8.67621 14.945 10.9694 12.5013L13.3399 14.8571C13.57 15.0857 13.7999 15.2 14.1449 15.2C14.4899 15.2 14.7199 15.0857 14.9498 14.8571C15.4098 14.4 15.4098 13.7143 14.9498 13.2571L12.5793 10.9013C15.1556 8.51358 18.1223 6.53773 21.3719 5.08366L22.6549 8.22858C22.7699 8.68568 23.23 8.91429 23.6899 8.91429C23.8049 8.91429 23.92 8.91429 24.1499 8.80005C24.7249 8.57144 24.9548 7.88572 24.7249 7.31438L23.4677 4.23241C26.5701 3.09898 29.8932 2.43081 33.3499 2.30866V10.2859C33.3499 10.9716 33.8099 11.4287 34.4999 11.4287C35.1899 11.4287 35.6498 10.9716 35.6498 10.2859V2.30853C39.276 2.4367 42.754 3.16782 45.9855 4.40424L44.6198 7.543C44.3898 8.11447 44.6198 8.80019 45.1949 9.02867C45.3098 9.14291 45.5399 9.14291 45.6548 9.14291C46.1148 9.14291 46.5749 8.80005 46.6898 8.4572L48.0694 5.28683C51.1462 6.71974 53.9615 8.62246 56.4204 10.9014L54.0499 13.2572C53.59 13.7143 53.59 14.4 54.0499 14.8572C54.28 15.0859 54.5099 15.2001 54.8549 15.2001C55.0849 15.2001 55.4299 15.0859 55.6598 14.8572L58.0303 12.5014C60.4329 15.0618 62.4211 18.0101 63.8843 21.2395L60.7197 22.5145C60.1447 22.7431 59.9148 23.4288 60.1447 24.0002C60.2596 24.4573 60.7197 24.6859 61.1797 24.6859C61.2946 24.6859 61.4097 24.5716 61.6396 24.5716L64.741 23.3222C65.8815 26.4054 66.5539 29.7078 66.6768 33.1431H58.65C57.96 33.1431 57.5 33.6002 57.5 34.2859C57.5 34.9716 57.96 35.4287 58.65 35.4287H66.6787C66.5537 38.9903 65.8469 42.4532 64.6008 45.7143L61.41 44.343C60.835 44.1144 60.145 44.343 59.915 44.9145C59.685 45.4859 59.915 46.1716 60.4901 46.4001L63.7219 47.789C62.7528 49.8704 61.5573 51.8556 60.145 53.7144Z" fill="#333333"/>
</svg>
