<svg width="19" height="19" viewBox="0 0 19 19" fill="none" xmlns="http://www.w3.org/2000/svg">
<path d="M16.489 0H2.87717C1.49043 0 0.366211 1.14626 0.366211 2.56029V16.4396C0.366211 17.8536 1.49039 18.9999 2.87717 18.9999H9.59046L9.60191 12.2104H7.87197C7.64715 12.2104 7.46468 12.025 7.46382 11.7958L7.45552 9.60723C7.45465 9.37674 7.63767 9.18943 7.86372 9.18943H9.59051V7.07473C9.59051 4.62065 11.0604 3.28438 13.2075 3.28438H14.9693C15.1947 3.28438 15.3775 3.47072 15.3775 3.7006V5.546C15.3775 5.77579 15.1948 5.96208 14.9695 5.96222L13.8883 5.96273C12.7207 5.96273 12.4946 6.52847 12.4946 7.35872V9.18948H15.0602C15.3047 9.18948 15.4944 9.40714 15.4656 9.65468L15.2112 11.8432C15.1868 12.0527 15.0127 12.2105 14.8058 12.2105H12.506L12.4946 19H16.4891C17.8758 19 19 17.8537 19 16.4398V2.56029C19 1.14626 17.8758 0 16.489 0Z" fill="white"/>
</svg>
