<svg width="73" height="73" viewBox="0 0 73 73" fill="none" xmlns="http://www.w3.org/2000/svg">
<path d="M37.4675 45.2268C37.1947 44.6519 36.5071 44.4067 35.932 44.6797C34.9964 45.1237 34.0155 45.4907 33.0166 45.7701C32.5987 45.8871 32.282 46.2285 32.1971 46.6541L30.9777 52.7505C30.8574 53.3525 30.3244 53.7895 29.7105 53.7895H26.3843C25.7703 53.7895 25.2375 53.3526 25.117 52.7505L23.8977 46.6541C23.8126 46.2285 23.4958 45.8871 23.0782 45.7701C21.6669 45.3752 20.305 44.8109 19.0302 44.0929C18.652 43.8798 18.1862 43.8974 17.8251 44.1381L12.6516 47.587C12.1408 47.9275 11.455 47.8595 11.0207 47.4255L8.66877 45.0734C8.23462 44.6392 8.16689 43.9534 8.50723 43.4426L11.9562 38.269C12.197 37.9078 12.2145 37.4422 12.0014 37.0639C11.2832 35.789 10.7189 34.4269 10.3241 33.016C10.2072 32.5981 9.86571 32.2814 9.44011 32.1964L3.34375 30.9771C2.74178 30.8568 2.30478 30.3238 2.30478 29.7099V26.3837C2.30478 25.7697 2.74164 25.2369 3.34375 25.1164L9.44011 23.8971C9.86571 23.812 10.2072 23.4952 10.3241 23.0776C10.719 21.6663 11.2834 20.3044 12.0014 19.0296C12.2144 18.6515 12.1969 18.1857 11.9562 17.8245L8.50751 12.6515C8.16703 12.1407 8.2349 11.455 8.66905 11.0207L11.021 8.66875C11.4552 8.2346 12.1411 8.16687 12.6518 8.50721L17.8254 11.9562C18.1864 12.197 18.6524 12.2144 19.0305 12.0014C20.3053 11.2833 21.6672 10.719 23.0785 10.3241C23.4963 10.2072 23.813 9.86569 23.898 9.4401L25.1173 3.34374C25.2377 2.74178 25.7706 2.30478 26.3846 2.30478H29.7108C30.3247 2.30478 30.8575 2.74163 30.978 3.34374L32.1973 9.4401C32.2825 9.86569 32.5993 10.2072 33.0169 10.3241C34.4281 10.719 35.79 11.2833 37.0648 12.0014C37.4431 12.2144 37.9089 12.1968 38.2699 11.9562L43.4435 8.50721C43.9542 8.16673 44.6399 8.23474 45.0743 8.66875L47.4263 11.0207C47.8604 11.4549 47.9282 12.1407 47.5878 12.6515L44.1388 17.8251C43.898 18.1863 43.8805 18.6519 44.0937 19.0302C44.8117 20.305 45.376 21.6669 45.7709 23.0781C45.8879 23.496 46.2293 23.8127 46.6549 23.8977L52.7513 25.117C53.3533 25.2373 53.7903 25.7703 53.7903 26.3842V29.7104C53.7903 30.3244 53.3534 30.8572 52.7513 30.9777L46.6549 32.197C46.2293 32.2821 45.8879 32.5989 45.7709 33.0168C45.4845 34.0405 45.1065 35.0447 44.6474 36.0015C44.372 36.5754 44.6141 37.2639 45.1879 37.5393C45.7618 37.8149 46.4505 37.5726 46.7256 36.9987C47.14 36.1351 47.4957 35.2373 47.7867 34.3215L53.2034 33.2382C54.8786 32.9029 56.0948 31.4192 56.0948 29.7103V26.3841C56.0948 24.6751 54.8786 23.1916 53.2027 22.8563L47.7861 21.773C47.4308 20.6546 46.9806 19.5673 46.4411 18.5266L49.5054 13.93C50.4532 12.5081 50.2643 10.599 49.0558 9.39048L46.7038 7.03851C45.4952 5.83002 43.5861 5.64125 42.1643 6.58896L37.5677 9.65325C36.527 9.11388 35.4397 8.66348 34.3213 8.30817L33.238 2.89163C32.9031 1.21619 31.4194 0 29.7105 0H26.3843C24.6753 0 23.1918 1.21619 22.8565 2.89205L21.7731 8.3086C20.6548 8.6639 19.5675 9.11416 18.5268 9.65368L13.9305 6.58939C12.5087 5.64153 10.5994 5.8303 9.39093 7.03894L7.03895 9.39091C5.8306 10.5994 5.64154 12.5084 6.5894 13.9305L9.6537 18.527C9.11432 19.5677 8.66392 20.6549 8.30861 21.7734L2.89192 22.8567C1.21619 23.1918 0 24.6754 0 26.3844V29.7106C0 31.4195 1.21619 32.903 2.89206 33.2384L8.30861 34.3217C8.66378 35.4399 9.11418 36.5272 9.6537 37.5681L6.5894 42.1646C5.64154 43.5866 5.83046 45.4957 7.03895 46.7042L9.39093 49.0561C10.5994 50.2646 12.5085 50.4534 13.9305 49.5057L18.5271 46.4414C19.5677 46.9808 20.6549 47.4312 21.7734 47.7865L22.8567 53.2033C23.1918 54.8786 24.6755 56.0949 26.3844 56.0949H29.7106C31.4196 56.0949 32.9031 54.8787 33.2384 53.2029L34.3218 47.7863C35.2099 47.5042 36.0816 47.161 36.9207 46.7626C37.4957 46.4895 37.7406 45.8019 37.4675 45.2268Z" fill="#333333"/>
<path d="M38.0312 34.452C38.1995 34.5384 38.3791 34.5793 38.5562 34.5793C38.9748 34.5793 39.3787 34.3505 39.5828 33.9524C40.5124 32.1395 41.0038 30.0977 41.0038 28.0476C41.0038 20.9034 35.1916 15.091 28.0473 15.091C24.6485 15.091 21.4368 16.3974 19.0036 18.7697C18.5477 19.214 18.5385 19.9438 18.9827 20.3995C19.427 20.8552 20.1567 20.8647 20.6126 20.4203C22.6128 18.4704 25.2531 17.3964 28.047 17.3964C33.9201 17.3964 38.6983 22.1745 38.6983 28.0477C38.6983 29.7578 38.3057 31.3906 37.5313 32.9008C37.241 33.4668 37.4648 34.1614 38.0312 34.452Z" fill="#333333"/>
<path d="M17.258 23.1155C16.6559 22.9083 16.0003 23.2284 15.7931 23.8304C15.3273 25.1846 15.0911 26.6035 15.0911 28.0474C15.0911 35.1917 20.9034 41.0039 28.0476 41.0039C30.7952 41.0039 33.4204 40.1547 35.6395 38.5477C36.155 38.1743 36.2704 37.4536 35.8971 36.938C35.5238 36.4224 34.803 36.3071 34.2874 36.6804C32.4641 38.0005 30.3065 38.6984 28.0474 38.6984C22.1742 38.6984 17.3961 33.9202 17.3961 28.0471C17.3961 26.8589 17.59 25.6922 17.9727 24.5799C18.1797 23.9781 17.8598 23.3224 17.258 23.1155Z" fill="#333333"/>
<path d="M70.7817 50.3751L67.4486 49.7085C67.2456 49.1044 67.0011 48.5146 66.7176 47.9444L68.6034 45.1159C69.3304 44.0252 69.1855 42.5609 68.2586 41.6342L66.7131 40.0886C65.7862 39.1619 64.3219 39.0169 63.2313 39.7439L60.4028 41.6296C59.8327 41.3462 59.2428 41.1017 58.6387 40.8988L57.9722 37.5657C57.7151 36.2804 56.5772 35.3475 55.2664 35.3475H53.0806C51.77 35.3475 50.6319 36.2804 50.3749 37.5657L49.7083 40.8988C49.1042 41.1018 48.5144 41.3463 47.9442 41.6296L45.1157 39.7439C44.025 39.017 42.5607 39.1617 41.634 40.0886L40.0884 41.6342C39.1615 42.5611 39.0166 44.0254 39.7437 45.1159L41.6294 47.9444C41.2396 48.7283 40.9238 49.5493 40.6877 50.3935C40.5161 51.0066 40.8742 51.6425 41.4871 51.8141C42.1002 51.9856 42.7361 51.6278 42.9078 51.0147C43.1587 50.1176 43.5174 49.2521 43.9737 48.4421C44.1867 48.0639 44.1691 47.5981 43.9285 47.2371L41.6619 43.8373C41.5423 43.6578 41.5661 43.4168 41.7186 43.2643L43.2642 41.7187C43.4168 41.5663 43.6577 41.5426 43.8372 41.662L47.237 43.9286C47.598 44.1694 48.0638 44.1868 48.4421 43.9738C49.2522 43.5175 50.1175 43.1588 51.0146 42.9078C51.4325 42.7909 51.7492 42.4494 51.8342 42.0239L52.6353 38.0178C52.6775 37.8064 52.8649 37.6528 53.0806 37.6528H55.2664C55.482 37.6528 55.6694 37.8064 55.7117 38.0178L56.5129 42.0241C56.598 42.4497 56.9148 42.7912 57.3324 42.9081C58.2295 43.1591 59.095 43.5178 59.905 43.974C60.2831 44.187 60.749 44.1695 61.11 43.9288L64.5098 41.6623C64.6893 41.5427 64.9303 41.5663 65.0828 41.719L66.6284 43.2646C66.7808 43.4171 66.8046 43.6581 66.6851 43.8376L64.4186 47.2374C64.1777 47.5985 64.1602 48.0642 64.3734 48.4424C64.8296 49.2526 65.1883 50.1179 65.4393 51.015C65.5562 51.4329 65.8977 51.7495 66.3233 51.8345L70.3293 52.6357C70.5407 52.6779 70.6943 52.8652 70.6943 53.0809V55.2668C70.6943 55.4824 70.5407 55.6697 70.3293 55.7121L66.323 56.5132C65.8974 56.5983 65.5559 56.9151 65.439 57.3327C65.1881 58.2298 64.8293 59.0953 64.3731 59.9053C64.1601 60.2835 64.1776 60.7493 64.4183 61.1104L66.6848 64.5101C66.8045 64.6896 66.7807 64.9306 66.6281 65.0832L65.0825 66.6287C64.9301 66.7813 64.6892 66.8049 64.5095 66.6854L61.1097 64.4189C60.7487 64.1782 60.2828 64.1607 59.9047 64.3737C59.0945 64.8299 58.2292 65.1887 57.3321 65.4396C56.9142 65.5565 56.5976 65.898 56.5126 66.3236L55.7114 70.3296C55.6692 70.541 55.4819 70.6946 55.2662 70.6946H53.0803C52.8647 70.6946 52.6774 70.541 52.635 70.3296L51.8339 66.3233C51.7488 65.8977 51.4319 65.5562 51.0143 65.4393C50.1172 65.1884 49.2518 64.8296 48.4418 64.3734C48.0635 64.1604 47.5976 64.1779 47.2367 64.4186L43.8369 66.6852C43.6574 66.8048 43.4165 66.7811 43.2639 66.6284L41.7184 65.0829C41.566 64.9303 41.5421 64.6894 41.6616 64.5098L43.9282 61.1101C44.169 60.7489 44.1865 60.2833 43.9734 59.905C43.5171 59.0949 43.1584 58.2296 42.9075 57.3325C42.7906 56.9146 42.4491 56.5979 42.0235 56.5129L38.0175 55.7118C37.806 55.6696 37.6525 55.4822 37.6525 55.2665V53.0806C37.6525 52.8651 37.806 52.6777 38.0175 52.6354L38.2627 52.5863C38.8869 52.4614 39.2918 51.8542 39.1668 51.23C39.0419 50.6058 38.4354 50.2016 37.8103 50.3259L37.5651 50.3749C36.28 50.6321 35.3471 51.7701 35.3471 53.0808V55.2666C35.3471 56.5772 36.28 57.7153 37.5653 57.9724L40.8984 58.6389C41.1014 59.243 41.346 59.8329 41.6293 60.403L39.7435 63.2315C39.0164 64.3222 39.1614 65.7865 40.0883 66.7133L41.6338 68.2588C42.5607 69.1857 44.025 69.3306 45.1156 68.6035L47.944 66.7178C48.5142 67.0013 49.1041 67.2458 49.7082 67.4487L50.3747 70.7817C50.6321 72.0671 51.77 72.9999 53.0807 72.9999H55.2666C56.5772 72.9999 57.7152 72.0671 57.9723 70.7817L58.6389 67.4487C59.243 67.2456 59.8328 67.0011 60.403 66.7177L63.2314 68.6034C64.3222 69.3304 65.7865 69.1856 66.7132 68.2587L68.2588 66.7131C69.1857 65.7862 69.3305 64.3219 68.6035 63.2313L66.7178 60.4029C67.0012 59.8327 67.2457 59.2429 67.4486 58.6388L70.7817 57.9722C72.0669 57.7151 72.9998 56.5772 72.9998 55.2665V53.0806C72.9999 51.7701 72.067 50.6321 70.7817 50.3751Z" fill="#FF3300"/>
<path d="M54.1734 50.0242C56.4615 50.0242 58.3229 51.8855 58.3229 54.1736C58.3229 54.8102 58.839 55.3262 59.4755 55.3262C60.1119 55.3262 60.6281 54.8101 60.6281 54.1736C60.6281 50.6144 57.7324 47.7188 54.1733 47.7188C50.6141 47.7188 47.7184 50.6144 47.7184 54.1736C47.7184 57.7328 50.6141 60.6284 54.1733 60.6284C55.6149 60.6284 56.9785 60.1635 58.1168 59.2841C58.6206 58.8948 58.7134 58.1709 58.3243 57.6671C57.935 57.1633 57.211 57.0704 56.7073 57.4596C55.9762 58.0244 55.0999 58.3231 54.1733 58.3231C51.8852 58.3231 50.0238 56.4617 50.0238 54.1736C50.0239 51.8854 51.8853 50.0242 54.1734 50.0242Z" fill="#FF3300"/>
<path d="M35.0697 28.0473C35.0697 24.1752 31.9193 21.0249 28.0473 21.0249C24.1752 21.0249 21.0249 24.1753 21.0249 28.0473C21.0249 31.9194 24.1752 35.0697 28.0473 35.0697C31.9195 35.0697 35.0697 31.9193 35.0697 28.0473ZM23.3301 28.0473C23.3301 25.4464 25.4464 23.3301 28.0473 23.3301C30.6482 23.3301 32.7645 25.4464 32.7645 28.0473C32.7645 30.6482 30.6484 32.7645 28.0473 32.7645C25.4461 32.7645 23.3301 30.6482 23.3301 28.0473Z" fill="black"/>
</svg>
