<svg width="24" height="15" viewBox="0 0 24 15" fill="none" xmlns="http://www.w3.org/2000/svg">
<path d="M21.6737 2.12269H15.6602V0.622296H21.6742V2.12269H21.6737ZM11.6569 8.27531C12.0449 8.87899 12.2388 9.61198 12.2388 10.4725C12.2388 11.3625 12.0202 12.1608 11.5754 12.866C11.2925 13.3326 10.9411 13.7268 10.519 14.0442C10.0436 14.4112 9.4808 14.6628 8.83377 14.7973C8.18467 14.932 7.48212 15 6.72533 15H0V9.23635e-08H7.21189C9.02973 0.0297053 10.3185 0.558738 11.0795 1.59769C11.5362 2.2349 11.7624 2.9995 11.7624 3.88824C11.7624 4.80529 11.5334 5.53907 11.0723 6.09657C10.8158 6.40915 10.4369 6.69348 9.93528 6.95012C10.6951 7.22952 11.2716 7.66949 11.6569 8.27531ZM3.44396 5.91374H6.60391C7.25329 5.91374 7.77824 5.78977 8.18255 5.54192C8.58658 5.29447 8.78818 4.85461 8.78818 4.22307C8.78818 3.52533 8.52125 3.06221 7.98609 2.83931C7.52609 2.68445 6.93753 2.6047 6.22337 2.6047H3.44396V5.91374ZM9.09245 10.2583C9.09245 9.47909 8.7754 8.94042 8.1426 8.65138C7.78873 8.48711 7.28945 8.40315 6.64928 8.39715H3.44396V12.3946H6.59967C7.24799 12.3946 7.74978 12.3093 8.11191 12.1315C8.76497 11.8045 9.09245 11.1822 9.09245 10.2583ZM23.9049 7.81801C23.9776 8.30877 24.0104 9.02079 23.9971 9.95146H16.2089C16.2519 11.0313 16.623 11.7864 17.3268 12.2185C17.7513 12.4895 18.2659 12.6218 18.8685 12.6218C19.504 12.6218 20.0219 12.4605 20.4206 12.1288C20.6378 11.953 20.8294 11.7048 20.9951 11.3917H23.8497C23.7749 12.0294 23.4312 12.6763 22.8135 13.3336C21.8565 14.3784 20.5144 14.9023 18.7906 14.9023C17.3667 14.9023 16.1117 14.4604 15.0224 13.58C13.9368 12.6964 13.3915 11.2635 13.3915 9.27581C13.3915 7.41184 13.881 5.98515 14.8634 4.9921C15.8493 3.9972 17.1217 3.50202 18.6901 3.50202C19.6198 3.50202 20.4578 3.66893 21.2055 4.00448C21.9508 4.34038 22.5667 4.86902 23.0518 5.59556C23.4908 6.2354 23.7732 6.97523 23.9049 7.81801ZM21.0951 8.09792C21.0428 7.35125 20.7946 6.78612 20.3477 6.3999C19.9045 6.01261 19.3508 5.81818 18.6901 5.81818C17.9711 5.81818 17.4159 6.02601 17.0215 6.43448C16.6243 6.84211 16.3772 7.39631 16.2759 8.09797H21.0951V8.09792Z" fill="white"/>
</svg>
