<svg width="19" height="19" viewBox="0 0 19 19" fill="none" xmlns="http://www.w3.org/2000/svg">
<path d="M2.72317 16.336C3.58964 17.1626 4.6263 17.8364 5.83316 18.2957C7.04002 18.755 8.38613 19 9.84055 19C11.4652 19 12.966 18.755 14.3121 18.25C15.5345 17.806 14.4823 15.5552 13.5849 15.9228C12.5948 16.3362 11.3878 16.5505 10.0106 16.5505C8.92752 16.5505 7.93743 16.3821 7.07081 16.0607C6.20434 15.7391 5.44619 15.2798 4.82729 14.6828C4.20838 14.0857 3.71326 13.3508 3.37286 12.5088C3.017 11.6512 2.8468 10.6715 2.8468 9.59982C2.8468 8.58935 3.017 7.6248 3.35739 6.76743C3.69779 5.91006 4.16197 5.14454 4.78087 4.53214C5.3843 3.90442 6.12698 3.39918 6.97797 3.04704C7.82896 2.69491 8.78826 2.51118 9.8404 2.51118C10.8153 2.51118 11.7126 2.64898 12.5173 2.89394C13.3064 3.1389 13.9872 3.52166 14.5595 4.0269C15.132 4.53214 15.5807 5.14454 15.9056 5.87944C16.2307 6.61433 16.3854 7.4717 16.3854 8.45156C16.3854 9.01803 16.3236 9.55389 16.1996 10.0591C16.076 10.5337 15.9213 10.9623 15.7047 11.2993C15.5034 11.6209 15.2713 11.881 14.9929 12.0648C14.6678 12.2791 14.1882 12.4016 13.8168 12.2791C13.3527 12.126 13.4457 11.483 13.4764 11.1002C13.523 10.5797 13.6621 10.0898 13.7704 9.58451C13.9406 8.75776 14.1263 7.94632 14.2965 7.13488C14.3893 6.69088 14.4975 6.23157 14.5903 5.78757C14.7141 5.2211 14.2809 4.66993 13.6776 4.66993H12.9968C12.579 4.66993 12.2077 4.94551 12.0992 5.34358C12.053 5.5273 12.0064 5.6804 12.0064 5.6804C11.6662 4.63931 10.4127 4.34841 9.42248 4.36372C8.12279 4.37903 6.9314 5.03737 6.06494 5.9713C5.98757 6.06316 5.89474 6.15502 5.81738 6.24688C5.36867 6.78274 5.02827 7.41046 4.79619 8.0688C4.54862 8.77307 4.42484 9.49265 4.42484 10.2275C4.42484 10.8554 4.51768 11.4524 4.68788 11.9882C4.87355 12.5395 5.13658 13.014 5.47698 13.4121C5.81738 13.8103 6.25061 14.1317 6.7612 14.3613C7.2718 14.591 7.84428 14.7134 8.46318 14.7134C8.92736 14.7134 9.36059 14.6369 9.74741 14.4993C10.1187 14.3615 10.4591 14.193 10.7531 13.994C10.9852 13.8409 11.2018 13.6572 11.372 13.4886C11.4802 13.6878 11.6041 13.8561 11.7743 14.0245C12.2077 14.4838 12.8729 14.7134 13.755 14.7134C14.4512 14.7134 15.1319 14.5758 15.7664 14.3002C16.4008 14.0245 16.9731 13.5958 17.4527 13.0448C17.9169 12.4935 18.3037 11.82 18.5822 11.0238C18.8609 10.2277 19 9.30908 19 8.29861C19 6.92068 18.737 5.69587 18.2264 4.67008C17.7158 3.64429 17.0195 2.77161 16.1532 2.08265C15.3022 1.39369 14.312 0.888453 13.2134 0.536317C12.1305 0.168413 11.001 0 9.84055 0C8.49444 0 7.21022 0.244964 6.01883 0.719581C4.82744 1.20951 3.77531 1.88316 2.89337 2.72522C1.99596 3.56728 1.28422 4.59307 0.773628 5.74134C0.263034 6.88961 -3.68895e-09 8.17566 -3.68895e-09 9.52297C-3.68895e-09 10.8854 0.232088 12.1716 0.711738 13.3199C1.17592 14.4835 1.85671 15.494 2.72317 16.336ZM11.0937 9.90572C10.9855 10.3191 10.8308 10.7172 10.614 11.0846C10.3974 11.4367 10.1344 11.7275 9.79398 11.9571C9.48453 12.1715 9.11319 12.2788 8.64901 12.2788C8.35503 12.2788 8.12294 12.2176 7.95274 12.1102C7.76707 11.9878 7.61235 11.8347 7.50404 11.6356C7.38026 11.4213 7.3029 11.1916 7.25648 10.962C7.21006 10.717 7.17912 10.4874 7.17912 10.2885C7.17912 9.85979 7.24101 9.4311 7.36479 8.98711C7.48857 8.55842 7.65876 8.16035 7.89085 7.82353C8.12294 7.4867 8.38598 7.21112 8.7109 6.99678C9.00488 6.79774 9.3298 6.70588 9.71662 6.70588C10.0261 6.70588 10.2738 6.75181 10.4593 6.85898C10.645 6.96616 10.7997 7.10395 10.908 7.27236C11.0318 7.45608 11.1091 7.67043 11.1709 7.90008C11.2328 8.16035 11.2639 8.43594 11.2639 8.69621C11.2484 9.07897 11.2021 9.47703 11.0937 9.90572Z" fill="white"/>
</svg>
