<svg width="12" height="13" viewBox="0 0 12 13" fill="none" xmlns="http://www.w3.org/2000/svg">
<path d="M11.1817 1.94249L10.7731 1.58205C10.3284 1.1891 9.75604 0.972656 9.16123 0.972656C8.46513 0.972656 7.80178 1.26972 7.34122 1.78775L6.17195 3.10342C6.02138 3.27253 5.94593 3.49008 5.95964 3.71582C5.97338 3.94124 6.07413 4.14807 6.24373 4.29802L6.35319 4.39492C6.50855 4.53249 6.70875 4.60822 6.91657 4.60822L6.96723 4.60676C7.19331 4.59321 7.40088 4.49272 7.55175 4.32338L8.72129 3.00756C8.92704 2.77599 9.3174 2.75272 9.55004 2.95773L9.95843 3.31896C10.0755 3.42232 10.1451 3.56541 10.1546 3.7219C10.1642 3.87826 10.1122 4.02845 10.0082 4.1451L7.45043 7.02208C7.27822 7.21604 6.97251 7.27204 6.74173 7.15345C6.38219 6.96854 5.91349 7.0568 5.64682 7.3565L5.62677 7.37927C5.43999 7.58876 5.36219 7.86715 5.41283 8.14422C5.46398 8.41962 5.63597 8.65579 5.88523 8.78586C6.23018 8.96566 6.61932 9.0645 7.01044 9.0645H7.01074C7.70652 9.0645 8.37017 8.76353 8.83097 8.24535L11.3885 5.3668C12.2774 4.36668 12.1851 2.82972 11.1817 1.94249Z" fill="#F2F2F2"/>
<path d="M5.64492 9.51213C5.30778 9.21447 4.74649 9.24792 4.44687 9.58438L3.27787 10.8998C3.07212 11.1313 2.682 11.1553 2.44964 10.95L2.0408 10.5884C1.92372 10.4849 1.85409 10.3419 1.8446 10.1855C1.83505 10.0294 1.88707 9.87923 1.99098 9.76258L4.54848 6.8858C4.71808 6.69484 5.01827 6.63714 5.24641 6.74892C5.61936 6.93209 6.09386 6.84281 6.38221 6.51735C6.56554 6.3114 6.64254 6.03787 6.59398 5.76816C6.54573 5.49687 6.37824 5.26673 6.13477 5.13695C5.78452 4.94994 5.38808 4.85107 4.98872 4.85107C4.29261 4.85107 3.62927 5.14826 3.16871 5.66637L0.610884 8.54266C-0.278564 9.54277 -0.185974 11.0778 0.817103 11.9646L1.22564 12.3208C1.67012 12.7138 2.24253 12.9254 2.83734 12.9254C2.83761 12.9254 2.83734 12.9254 2.83761 12.9254C3.53372 12.9254 4.19734 12.633 4.65814 12.1148L5.82694 10.8021C5.97779 10.6327 6.05326 10.4162 6.0395 10.1917C6.02635 9.96868 5.92269 9.75653 5.75492 9.60868L5.64492 9.51213Z" fill="#F2F2F2"/>
</svg>
