<svg width="184" height="36" viewBox="0 0 184 36" fill="none" xmlns="http://www.w3.org/2000/svg">
<path fill-rule="evenodd" clip-rule="evenodd" d="M0 18L2.54317 20.4831V15.5169L0 18ZM3.18859 15.5077V20.4831L5.73176 17.9908L3.18859 15.5077ZM5.73176 23.5846V18.6185L3.17896 21.1015L5.73176 23.5846ZM6.36755 18.6185V23.5846L8.91071 21.1108L6.36755 18.6185ZM5.73176 17.3815V12.4154L3.18859 14.8892L5.73176 17.3815ZM8.91071 14.8985L6.36755 12.4154V17.3815L8.91071 14.8985ZM6.36755 18L8.91071 20.4831V15.5169L6.36755 18ZM9.54651 15.5077V20.4831L12.0993 17.9908L9.54651 15.5077ZM8.91071 14.28V9.31385L6.36755 11.7877L8.91071 14.28ZM9.54651 9.31385V14.28L12.0993 11.7969L9.54651 9.31385ZM9.54651 14.8892L12.0993 17.3815V12.4154L9.54651 14.8892ZM15.2783 14.8985L12.7351 12.4154V17.3815L15.2783 14.8985ZM12.0993 11.1692V6.21231L9.53687 8.68615L12.0993 11.1692ZM12.7351 6.21231V11.1692L15.2783 8.68615L12.7351 6.21231ZM15.2783 14.28V9.31385L12.7351 11.7877L15.2783 14.28ZM15.9237 9.31385V14.28L18.4669 11.7969L15.9237 9.31385ZM15.2783 8.06769V3.11077L12.7351 5.58462L15.2783 8.06769ZM15.9237 3.10154V8.06769L18.4669 5.59385L15.9237 3.10154ZM18.4669 11.1692V6.21231L15.9237 8.68615L18.4669 11.1692ZM19.1026 6.21231V11.1692L21.6554 8.68615L19.1026 6.21231ZM15.9237 2.48308L18.4669 4.96615V0L15.9237 2.48308ZM21.6554 2.49231L19.1026 0V4.96615L21.6554 2.49231ZM21.6458 8.06769V3.10154L19.1026 5.58462L21.6458 8.06769ZM22.2912 3.10154V8.06769L24.8344 5.59385L22.2912 3.10154ZM21.6458 14.28V9.31385L19.1026 11.7877L21.6458 14.28ZM22.2912 9.31385V14.28L24.8344 11.7969L22.2912 9.31385ZM22.2912 14.8892L24.8344 17.3815V12.4154L22.2912 14.8892ZM28.023 14.8985L25.4702 12.4154V17.3815L28.023 14.8985ZM24.8344 11.1692V6.21231L22.2912 8.68615L24.8344 11.1692ZM25.4702 6.21231V11.1692L28.0326 8.67692L25.4702 6.21231ZM28.023 14.28V9.31385L25.4702 11.7877L28.023 14.28ZM28.6588 9.31385V14.28L31.2019 11.7969L28.6588 9.31385ZM12.0897 29.7877V24.8308L9.55614 27.3231L12.0897 29.7877ZM12.7351 24.8308V29.7877L15.2783 27.3138L12.7351 24.8308ZM24.8344 29.7877V24.8308L22.2912 27.3138L24.8344 29.7877ZM25.4702 24.8308V29.7877L28.023 27.3138L25.4702 24.8308ZM18.4669 36V31.0338L15.9237 33.5077L18.4669 36ZM19.1026 31.0338V36L21.6554 33.5169L19.1026 31.0338ZM25.4514 18.0603L28.0042 20.5434V15.5772L25.4514 18.0603ZM28.64 15.568V20.5434L31.1832 18.0511L28.64 15.568ZM31.1832 23.6449V18.6788L28.64 21.1618L31.1832 23.6449ZM31.8189 18.6788V23.6449L34.3621 21.1711L31.8189 18.6788ZM31.1832 17.4418V12.4757L28.64 14.9495L31.1832 17.4418ZM31.8189 12.4757V17.4418L34.3621 14.9588L31.8189 12.4757ZM31.8189 18.0603L34.3621 20.5434V15.5772L31.8189 18.0603ZM35.0075 15.568V20.5434L37.5507 18.0603L35.0075 15.568ZM15.2595 20.5434V15.5772L12.7163 18.0603L15.2595 20.5434ZM15.9049 15.568V20.5434L18.4481 18.0511L15.9049 15.568ZM18.4481 23.6449V18.6788L15.9049 21.1618L18.4481 23.6449ZM19.0839 18.6788V23.6449L21.6367 21.1711L19.0839 18.6788ZM18.4481 17.4418V12.4757L15.9049 14.9495L18.4481 17.4418ZM19.0839 12.4757V17.4418L21.6367 14.9588L19.0839 12.4757ZM21.627 20.5434V15.5772L19.0839 18.0603L21.627 20.5434ZM22.2724 15.568V20.5434L24.8156 18.0511L22.2724 15.568ZM80.3057 11.1559C80.3057 14.865 77.337 17.9031 73.2527 17.9031C69.1685 17.9031 66.2376 14.9022 66.2376 11.1559C66.2376 7.44679 69.2063 4.40869 73.2906 4.40869C77.3748 4.40869 80.3057 7.40951 80.3057 11.1559ZM69.2819 11.1559C69.2819 13.3925 70.9459 15.2564 73.2906 15.2564C75.6352 15.2564 77.2614 13.4298 77.2614 11.1559C77.2614 8.91924 75.5974 7.05538 73.2527 7.05538C70.9081 7.05538 69.2819 8.88197 69.2819 11.1559ZM54.5586 17.6794H51.6466V4.63236H57.6974C59.3803 4.63236 60.685 5.09832 61.5548 5.9557C62.2922 6.68261 62.6893 7.70773 62.6893 8.97516C62.6893 11.0813 61.5359 12.4047 59.853 13.0197L63.0864 17.6794H59.6828L56.8087 13.5043H54.5586V17.6794ZM54.5586 7.22313V10.9695H57.5083C58.9265 10.9695 59.7395 10.2239 59.7395 9.08699C59.7395 7.85684 58.8697 7.22313 57.4516 7.22313H54.5586ZM90.6035 17.9031C93.1562 17.9031 94.6689 17.1202 96.0303 15.6851L94.1773 13.728C93.1373 14.6599 92.2108 15.2564 90.6981 15.2564C88.429 15.2564 86.8596 13.3925 86.8596 11.1559C86.8596 8.88197 88.4668 7.05538 90.6981 7.05538C92.2108 7.05538 93.0806 7.5959 94.1016 8.50919L95.8412 6.5335C94.6122 5.34062 93.2129 4.40869 90.717 4.40869C86.6516 4.40869 83.8153 7.44679 83.8153 11.1559C83.8153 14.9395 86.7083 17.9031 90.6035 17.9031ZM102.786 17.6794H99.8741V4.63236H102.786V10.3358L108.156 4.63236H111.673L106.284 10.168L111.919 17.6794H108.421L104.318 12.1251L102.786 13.6907V17.6794ZM115.199 17.6794H125.277V15.1259H118.092V12.386H124.332V9.83254H118.092V7.18585H125.183V4.63236H115.199V17.6794ZM135.373 17.6794H132.461V7.27904H128.434V4.63236H139.401V7.27904H135.373V17.6794ZM143.153 17.6794H153.231V15.1259H146.046V12.386H152.286V9.83254H146.046V7.18585H153.137V4.63236H143.153V17.6794ZM168.962 15.6851C167.6 17.1202 166.088 17.9031 163.535 17.9031C159.64 17.9031 156.747 14.9395 156.747 11.1559C156.747 7.44679 159.583 4.40869 163.648 4.40869C166.144 4.40869 167.544 5.34062 168.773 6.5335L167.033 8.50919C166.012 7.5959 165.142 7.05538 163.629 7.05538C161.398 7.05538 159.791 8.88197 159.791 11.1559C159.791 13.3925 161.36 15.2564 163.629 15.2564C165.142 15.2564 166.069 14.6599 167.109 13.728L168.962 15.6851ZM172.805 17.6794H175.717V12.4419H181.087V17.6794H183.999V4.63236H181.087V9.79526H175.717V4.63236H172.805V17.6794ZM85.6384 30.8567C87.3416 30.8567 88.501 29.4707 88.501 27.8879C88.501 26.2887 87.3576 24.9192 85.6544 24.9192C83.9512 24.9192 82.7918 26.3051 82.7918 27.8879C82.7918 29.4871 83.9352 30.8567 85.6384 30.8567ZM85.6544 30.258C84.375 30.258 83.4474 29.1919 83.4474 27.8879C83.4474 26.5676 84.359 25.5178 85.6384 25.5178C86.9178 25.5178 87.8453 26.584 87.8453 27.8879C87.8453 29.2083 86.9338 30.258 85.6544 30.258ZM53.5261 30.7583H54.1658V25.6163H56.0449V25.0176H51.647V25.6163H53.5261V30.7583ZM59.4707 30.8485C60.8701 30.8485 61.8056 29.9792 61.8056 28.3062V25.0176H61.1739V28.3554C61.1739 29.6101 60.5182 30.2498 59.4867 30.2498C58.4153 30.2498 57.7756 29.5527 57.7756 28.3144V25.0176H57.1439V28.3554C57.1439 29.9792 58.0874 30.8485 59.4707 30.8485ZM63.9309 30.7583H63.2992V25.0176H65.706C66.3937 25.0176 66.9454 25.2308 67.2973 25.5917C67.5691 25.8705 67.7291 26.2723 67.7291 26.7398C67.7291 27.6911 67.0894 28.2488 66.2098 28.4128L67.929 30.7583H67.1533L65.5301 28.5276H63.9309V30.7583ZM63.9309 25.6163V27.9453H65.6501C66.4897 27.9453 67.0894 27.5025 67.0894 26.748C67.0894 26.0427 66.5616 25.6163 65.6581 25.6163H63.9309ZM69.0777 30.7583H69.6934V26.0509L73.3076 30.7583H73.8114V25.0176H73.1957V29.6183L69.6694 25.0176H69.0777V30.7583ZM80.183 30.7583H79.5433V28.4866L77.2165 25.0176H77.9841L79.8712 27.8879L81.7743 25.0176H82.5099L80.183 28.4784V30.7583ZM94.407 28.3062C94.407 29.9792 93.4715 30.8485 92.0721 30.8485C90.6888 30.8485 89.7453 29.9792 89.7453 28.3554V25.0176H90.377V28.3144C90.377 29.5527 91.0167 30.2498 92.0881 30.2498C93.1196 30.2498 93.7753 29.6101 93.7753 28.3554V25.0176H94.407V28.3062ZM95.9006 30.7583H96.5323V28.5276H98.1315L99.7547 30.7583H100.53L98.8112 28.4128C99.6908 28.2488 100.33 27.6911 100.33 26.7398C100.33 26.2723 100.171 25.8705 99.8987 25.5917C99.5468 25.2308 98.9951 25.0176 98.3074 25.0176H95.9006V30.7583ZM96.5323 27.9453V25.6163H98.2595C99.163 25.6163 99.6908 26.0427 99.6908 26.748C99.6908 27.5025 99.091 27.9453 98.2515 27.9453H96.5323ZM104.764 30.7583H104.132V25.0176H104.764V30.7583ZM106.403 30.7583H108.346C110.106 30.7583 111.321 29.5035 111.321 27.8879C111.321 26.2559 110.106 25.0176 108.346 25.0176H106.403V30.7583ZM107.035 30.1596V25.6163H108.346C109.762 25.6163 110.665 26.6168 110.665 27.8879C110.665 29.1755 109.762 30.1596 108.346 30.1596H107.035ZM116.744 30.7583H112.658V25.0176H116.704V25.6081H113.29V27.5681H116.344V28.1586H113.29V30.1678H116.744V30.7583ZM117.535 30.7583H118.183L118.846 29.2411H121.893L122.549 30.7583H123.228L120.678 24.9766H120.086L117.535 30.7583ZM119.094 28.6588L120.374 25.7311L121.645 28.6588H119.094ZM127.417 30.7583H126.785V25.0176H127.417V30.7583ZM129.056 30.7583H129.672V26.0509L133.286 30.7583H133.79V25.0176H133.174V29.6183L129.648 25.0176H129.056V30.7583ZM137.493 30.7583H136.853V25.6163H134.974V25.0176H139.372V25.6163H137.493V30.7583ZM142.775 30.8567C144.478 30.8567 145.637 29.4707 145.637 27.8879C145.637 26.2887 144.494 24.9192 142.791 24.9192C141.088 24.9192 139.928 26.3051 139.928 27.8879C139.928 29.4871 141.072 30.8567 142.775 30.8567ZM142.791 30.258C141.511 30.258 140.584 29.1919 140.584 27.8879C140.584 26.5676 141.495 25.5178 142.775 25.5178C144.054 25.5178 144.982 26.584 144.982 27.8879C144.982 29.2083 144.07 30.258 142.791 30.258ZM149.999 30.7583H149.367V25.0176H151.774C152.461 25.0176 153.013 25.2308 153.365 25.5917C153.637 25.8705 153.797 26.2723 153.797 26.7398C153.797 27.6911 153.157 28.2488 152.277 28.4128L153.997 30.7583H153.221L151.598 28.5276H149.999V30.7583ZM149.999 25.6163V27.9453H151.718C152.557 27.9453 153.157 27.5025 153.157 26.748C153.157 26.0427 152.629 25.6163 151.726 25.6163H149.999ZM155.145 30.7583H159.231V30.1678H155.777V28.1586H158.832V27.5681H155.777V25.6081H159.191V25.0176H155.145V30.7583ZM160.67 30.7583H160.022L162.573 24.9766H163.165L165.716 30.7583H165.036L164.38 29.2411H161.334L160.67 30.7583ZM162.861 25.7311L161.582 28.6588H164.132L162.861 25.7311ZM166.819 30.7583H170.602V30.1596H167.451V25.0176H166.819V30.7583ZM172.458 30.7583H171.826V25.0176H172.458V30.7583ZM175.576 30.7583H176.216V25.6163H178.095V25.0176H173.697V25.6163H175.576V30.7583ZM181.673 30.7583H181.033V28.4866L178.706 25.0176H179.474L181.361 27.8879L183.264 25.0176H184L181.673 28.4784V30.7583Z" fill="white"/>
</svg>
