<svg width="7" height="9" viewBox="0 0 7 9" fill="none" xmlns="http://www.w3.org/2000/svg">
<path d="M3.37521 0.00229066C1.63207 0.065031 0.183957 1.46008 0.0166589 3.2408C-0.0175203 3.59695 0.00226771 3.94202 0.0634304 4.27233C0.0634304 4.27233 0.0688271 4.31108 0.0868161 4.38489C0.140783 4.63216 0.221734 4.87205 0.322472 5.09718C0.673258 5.94971 1.48456 7.37613 3.30505 8.92803C3.41659 9.02399 3.58029 9.02399 3.69362 8.92803C5.51411 7.37798 6.32541 5.95155 6.678 5.09533C6.78053 4.87021 6.85968 4.63216 6.91365 4.38305C6.92984 4.31108 6.93704 4.27048 6.93704 4.27048C6.97841 4.04905 7 3.82207 7 3.58956C7 1.56342 5.3648 -0.0696763 3.37521 0.00229066ZM3.49933 5.37582C2.56031 5.37582 1.79937 4.59526 1.79937 3.63201C1.79937 2.66876 2.56031 1.88819 3.49933 1.88819C4.43836 1.88819 5.1993 2.66876 5.1993 3.63201C5.1993 4.59526 4.43836 5.37582 3.49933 5.37582Z" fill="black"/>
<path d="M3.37521 0.00229066C1.63207 0.065031 0.183957 1.46008 0.0166589 3.2408C-0.0175203 3.59695 0.00226771 3.94202 0.0634304 4.27233C0.0634304 4.27233 0.0688271 4.31108 0.0868161 4.38489C0.140783 4.63216 0.221734 4.87205 0.322472 5.09718C0.673258 5.94971 1.48456 7.37613 3.30505 8.92803C3.41659 9.02399 3.58029 9.02399 3.69362 8.92803C5.51411 7.37798 6.32541 5.95155 6.678 5.09533C6.78053 4.87021 6.85968 4.63216 6.91365 4.38305C6.92984 4.31108 6.93704 4.27048 6.93704 4.27048C6.97841 4.04905 7 3.82207 7 3.58956C7 1.56342 5.3648 -0.0696763 3.37521 0.00229066ZM3.49933 5.37582C2.56031 5.37582 1.79937 4.59526 1.79937 3.63201C1.79937 2.66876 2.56031 1.88819 3.49933 1.88819C4.43836 1.88819 5.1993 2.66876 5.1993 3.63201C5.1993 4.59526 4.43836 5.37582 3.49933 5.37582Z" fill="url(#paint0_linear_1_156)"/>
<defs>
<linearGradient id="paint0_linear_1_156" x1="8.4244" y1="4.45263" x2="0.0182823" y2="4.06061" gradientUnits="userSpaceOnUse">
<stop stop-color="#5C9FF9"/>
<stop offset="1" stop-color="#0058DC"/>
</linearGradient>
</defs>
</svg>
