<svg width="1798" height="1944" viewBox="0 0 1798 1944" fill="none" xmlns="http://www.w3.org/2000/svg">
<mask id="mask0_1_5" style="mask-type:alpha" maskUnits="userSpaceOnUse" x="-1" y="0" width="1945" height="1944">
<path d="M-0.000244141 972C-0.000244141 1508.82 435.179 1944 972 1944C1508.82 1944 1944 1508.82 1944 972C1944 435.179 1508.82 0 972 0C435.179 0 -0.000244141 435.179 -0.000244141 972Z" fill="#C4C4C4" fill-opacity="0.05"/>
</mask>
<g mask="url(#mask0_1_5)">
<circle r="41.0071" transform="matrix(-1 0 0 1 923.399 961.586)" stroke="white" stroke-width="1.3"/>
<circle r="60.1" transform="matrix(-1 0 0 1 918.192 963.322)" stroke="white" stroke-width="1.3"/>
<circle r="23.65" transform="matrix(-1 0 0 1 923.399 961.586)" stroke="white" stroke-width="1.3"/>
<circle r="80.9286" transform="matrix(-1 0 0 1 911.249 963.322)" stroke="white" stroke-width="1.3"/>
<circle r="101.757" transform="matrix(-1 0 0 1 904.306 963.322)" stroke="white" stroke-width="1.3"/>
<circle r="122.185" transform="matrix(-1 0 0 1 897.459 959.907)" stroke="white" stroke-width="1.3"/>
<circle r="141.488" transform="matrix(-1 0 0 1 892.195 958.153)" stroke="white" stroke-width="1.3"/>
<circle r="159.036" transform="matrix(-1 0 0 1 888.685 954.643)" stroke="white" stroke-width="1.3"/>
<circle r="179.864" transform="matrix(-1 0 0 1 881.742 951.172)" stroke="white" stroke-width="1.3"/>
<circle r="200.693" transform="matrix(-1 0 0 1 871.328 947.7)" stroke="white" stroke-width="1.3"/>
<circle r="223.257" transform="matrix(-1 0 0 1 859.178 945.965)" stroke="white" stroke-width="1.3"/>
<circle r="245.821" transform="matrix(-1 0 0 1 850.499 940.758)" stroke="white" stroke-width="1.3"/>
<circle r="270.121" transform="matrix(-1 0 0 1 840.085 933.814)" stroke="white" stroke-width="1.3"/>
<circle r="299.629" transform="matrix(-1 0 0 1 831.406 921.665)" stroke="white" stroke-width="1.3"/>
<circle r="329.136" transform="matrix(-1 0 0 1 822.728 906.043)" stroke="white" stroke-width="1.3"/>
<circle r="356.907" transform="matrix(-1 0 0 1 812.314 899.1)" stroke="white" stroke-width="1.3"/>
<circle r="389.886" transform="matrix(-1 0 0 1 803.635 883.479)" stroke="white" stroke-width="1.3"/>
<circle r="424.6" transform="matrix(-1 0 0 1 793.221 866.122)" stroke="white" stroke-width="1.3"/>
<circle r="459.314" transform="matrix(-1 0 0 1 779.335 855.707)" stroke="white" stroke-width="1.3"/>
<circle r="500.971" transform="matrix(-1 0 0 1 775.863 831.408)" stroke="white" stroke-width="1.3"/>
<circle r="539.157" transform="matrix(-1 0 0 1 768.921 810.579)" stroke="white" stroke-width="1.3"/>
<circle r="573.871" transform="matrix(-1 0 0 1 765.449 789.75)" stroke="white" stroke-width="1.3"/>
<circle r="624.207" transform="matrix(-1 0 0 1 763.714 756.772)" stroke="white" stroke-width="1.3"/>
<circle r="672.807" transform="matrix(-1 0 0 1 753.299 729)" stroke="white" stroke-width="1.3"/>
<circle r="752.65" transform="matrix(-1 0 0 1 728.999 676.929)" stroke="white" stroke-width="1.3"/>
<circle r="827.286" transform="matrix(-1 0 0 1 730.735 626.593)" stroke="white" stroke-width="1.3"/>
<circle r="889.771" transform="matrix(-1 0 0 1 730.735 588.407)" stroke="white" stroke-width="1.3"/>
<circle r="934.9" transform="matrix(-1 0 0 1 730.735 574.522)" stroke="white" stroke-width="1.3"/>
<circle r="971.35" transform="matrix(-1 0 0 1 728.999 572.786)" stroke="white" stroke-width="1.3"/>
<circle r="1013.01" transform="matrix(-1 0 0 1 728.999 572.786)" stroke="white" stroke-width="1.3"/>
<circle r="1037.31" transform="matrix(-1 0 0 1 749.828 586.671)" stroke="white" stroke-width="1.3"/>
<circle r="1061.61" transform="matrix(-1 0 0 1 763.714 607.5)" stroke="white" stroke-width="1.3"/>
<circle r="1101.53" transform="matrix(-1 0 0 1 768.92 609.236)" stroke="white" stroke-width="1.3"/>
<circle r="1137.98" transform="matrix(-1 0 0 1 777.599 621.386)" stroke="white" stroke-width="1.3"/>
<circle r="1151.86" transform="matrix(-1 0 0 1 801.899 649.157)" stroke="white" stroke-width="1.3"/>
<circle r="1177.9" transform="matrix(-1 0 0 1 814.049 664.779)" stroke="white" stroke-width="1.3"/>
<circle r="1177.9" transform="matrix(-1 0 0 1 827.935 723.793)" stroke="white" stroke-width="1.3"/>
<circle r="1177.9" transform="matrix(-1 0 0 1 859.178 765.45)" stroke="white" stroke-width="1.3"/>
</g>
</svg>
