<svg width="19" height="17" viewBox="0 0 19 17" fill="none" xmlns="http://www.w3.org/2000/svg">
<path d="M0.335596 7.85203L4.71358 9.46952L6.40813 14.8641C6.51656 15.2096 6.94336 15.3373 7.22665 15.1081L9.66701 13.1387C9.92282 12.9324 10.2872 12.9221 10.5545 13.1142L14.9561 16.2775C15.2591 16.4956 15.6884 16.3312 15.7644 15.9687L18.9888 0.615617C19.0718 0.219645 18.6787 -0.110688 18.2978 0.0351375L0.330466 6.89639C-0.112931 7.06566 -0.109067 7.68708 0.335596 7.85203ZM6.13504 8.60849L14.6913 3.39194C14.845 3.29846 15.0032 3.50429 14.8712 3.62554L7.80983 10.1231C7.56162 10.3518 7.40152 10.6579 7.35617 10.9901L7.11563 12.7547C7.08377 12.9903 6.74943 13.0137 6.68376 12.7856L5.75865 9.56789C5.65269 9.20088 5.8071 8.80885 6.13504 8.60849Z" fill="white"/>
</svg>
