<svg width="71" height="71" viewBox="0 0 71 71" fill="none" xmlns="http://www.w3.org/2000/svg">
<path d="M13.2635 70.999C14.0388 70.999 14.6674 70.3704 14.6674 69.5951C14.6674 68.8197 14.0388 68.1911 13.2635 68.1911V70.999ZM38.5434 25.1226C38.5434 25.898 39.1719 26.5265 39.9473 26.5265C40.7227 26.5265 41.3513 25.898 41.3513 25.1226H38.5434ZM13.2635 68.1911H10.2986V70.999H13.2635V68.1911ZM10.2986 68.1911C6.16115 68.1911 2.80791 64.8379 2.80791 60.7005H2.39092e-08C2.39092e-08 66.3887 4.61041 70.999 10.2986 70.999V68.1911ZM2.80791 60.7005V10.2984H2.39092e-08V60.7005H2.80791ZM2.80791 10.2984C2.80791 6.16107 6.16115 2.80787 10.2986 2.80787V2.39089e-08C4.61041 2.39089e-08 2.39092e-08 4.61034 2.39092e-08 10.2984H2.80791ZM10.2986 2.80787H31.0527V2.39089e-08H10.2986V2.80787ZM31.0527 2.80787C35.1901 2.80787 38.5434 6.16107 38.5434 10.2984H41.3513C41.3513 4.61034 36.7409 2.39089e-08 31.0527 2.39089e-08V2.80787ZM38.5434 10.2984V25.1226H41.3513V10.2984H38.5434Z" fill="#FF3300"/>
<path d="M9.92836 3.00453C9.92836 1.53339 11.121 0.340805 12.5921 0.340805H28.5746C30.0458 0.340805 31.2384 1.53339 31.2384 3.00453C31.2384 4.47565 30.0458 5.66824 28.5746 5.66824H12.5921C11.121 5.66824 9.92836 4.47565 9.92836 3.00453Z" fill="#FF3300"/>
<path d="M22.1589 68.1919C21.3835 68.1919 20.7549 68.8205 20.7549 69.5958C20.7549 70.3712 21.3835 70.9998 22.1589 70.9998V68.1919ZM60.5954 65.2523L59.603 64.2593L59.6022 64.2601L60.5954 65.2523ZM54.6421 27.9577L55.6804 27.0129C55.6655 26.9965 55.6503 26.9806 55.6348 26.965L54.6421 27.9577ZM48.73 27.9577L47.7382 26.9641L47.7374 26.9649L48.73 27.9577ZM48.7123 27.9755L47.7196 26.9827L47.7186 26.9837L48.7123 27.9755ZM47.8499 35.0106C48.3983 35.5588 49.2872 35.5588 49.8355 35.0105C50.3837 34.4623 50.3837 33.5733 49.8355 33.0251L47.8499 35.0106ZM39.8353 30.9225L38.8436 29.9289L38.8427 29.9298L39.8353 30.9225ZM39.8177 30.9403L38.8249 29.9475L38.8239 29.9485L39.8177 30.9403ZM41.9202 40.9402C42.4686 41.4885 43.3575 41.4885 43.9058 40.9402C44.454 40.3919 44.454 39.503 43.9058 38.9547L41.9202 40.9402ZM30.9408 33.8874L29.949 32.8937L29.9481 32.8946L30.9408 33.8874ZM30.923 33.9052L29.9303 32.9124L29.9294 32.9133L30.923 33.9052ZM35.9905 46.8699C36.5387 47.4181 37.4278 47.4181 37.9759 46.8699C38.5243 46.3216 38.5243 45.4327 37.9759 44.8844L35.9905 46.8699ZM38.4657 59.2189L38.6835 60.6058C39.2054 60.5238 39.6372 60.1558 39.8006 59.6536C39.9641 59.1514 39.8319 58.5996 39.4585 58.2262L38.4657 59.2189ZM23.5968 61.5551L23.7958 62.945L23.8147 62.9422L23.5968 61.5551ZM22.1589 70.9998H50.1147V68.1919H22.1589V70.9998ZM50.1147 70.9998C54.4184 70.9998 58.5473 69.2894 61.5888 66.2444L59.6022 64.2601C57.0875 66.7773 53.6737 68.1919 50.1147 68.1919V70.9998ZM61.5878 66.2454L66.2518 61.5846L64.2668 59.5986L59.603 64.2593L61.5878 66.2454ZM66.2518 61.5846C69.2931 58.5433 71.0007 54.4207 71.0007 50.1228H68.1928C68.1928 53.6758 66.7816 57.0838 64.2668 59.5986L66.2518 61.5846ZM71.0007 50.1228C71.0007 46.088 69.4947 42.1963 66.781 39.2133L64.704 41.1027C66.9475 43.569 68.1928 46.787 68.1928 50.1228H71.0007ZM66.781 39.2133L55.6804 27.0129L53.6035 28.9025L64.704 41.1027L66.781 39.2133ZM55.6348 26.965C53.4553 24.7855 49.9193 24.7868 47.7382 26.9641L49.722 28.9513C50.8081 27.8672 52.5674 27.8685 53.6493 28.9504L55.6348 26.965ZM47.7374 26.9649L47.7196 26.9827L49.7049 28.9683L49.7228 28.9505L47.7374 26.9649ZM47.7186 26.9837C45.5414 29.1649 45.54 32.7007 47.7196 34.8801L49.7049 32.8946C48.6231 31.8127 48.6219 30.0534 49.7059 28.9673L47.7186 26.9837ZM47.7196 34.8801L47.8499 35.0106L49.8355 33.0251L49.7049 32.8946L47.7196 34.8801ZM49.8355 33.0251L46.7402 29.9298L44.7546 31.9153L47.8499 35.0106L49.8355 33.0251ZM46.7402 29.9298C44.5607 27.7504 41.0249 27.7517 38.8436 29.9289L40.8273 31.9162C41.9134 30.8321 43.6728 30.8334 44.7546 31.9153L46.7402 29.9298ZM38.8427 29.9298L38.8249 29.9475L40.8103 31.9331L40.8281 31.9153L38.8427 29.9298ZM38.8239 29.9485C36.6468 32.1297 36.6454 35.6655 38.8249 37.8449L40.8103 35.8595C39.7284 34.7776 39.7272 33.0182 40.8113 31.9321L38.8239 29.9485ZM38.8249 37.8449L41.9202 40.9402L43.9058 38.9547L40.8103 35.8595L38.8249 37.8449ZM43.9058 38.9547L37.8455 32.8946L35.8599 34.8801L41.9202 40.9402L43.9058 38.9547ZM37.8455 32.8946C35.666 30.7152 32.1302 30.7165 29.949 32.8937L31.9327 34.881C33.0187 33.7969 34.7781 33.7982 35.8599 34.8801L37.8455 32.8946ZM29.9481 32.8946L29.9303 32.9124L31.9158 34.8979L31.9335 34.8801L29.9481 32.8946ZM29.9294 32.9133C27.7521 35.0945 27.7508 38.6303 29.9303 40.8097L31.9158 38.8243C30.8339 37.7424 30.8326 35.983 31.9167 34.897L29.9294 32.9133ZM29.9303 40.8097L35.9905 46.8699L37.9759 44.8844L31.9158 38.8243L29.9303 40.8097ZM37.9759 44.8844L23.1427 30.0514L21.1572 32.0368L35.9905 46.8699L37.9759 44.8844ZM23.1427 30.0514C20.9608 27.8695 17.4272 27.8695 15.2452 30.0514L17.2307 32.0368C18.3161 30.9515 20.0718 30.9515 21.1572 32.0368L23.1427 30.0514ZM15.2452 30.0514L15.2275 30.0691L17.2129 32.0546L17.2307 32.0368L15.2452 30.0514ZM15.2275 30.0691C13.0455 32.251 13.0455 35.7846 15.2275 37.9665L17.213 35.981C16.1276 34.8957 16.1276 33.14 17.2129 32.0546L15.2275 30.0691ZM15.2275 37.9665L37.4729 60.2115L39.4585 58.2262L17.213 35.981L15.2275 37.9665ZM38.2477 57.8321L23.3789 60.1682L23.8147 62.9422L38.6835 60.6058L38.2477 57.8321ZM23.3978 60.1654C20.1812 60.6261 17.79 63.3788 17.79 66.6309H20.5979C20.5979 64.7777 21.9603 63.2077 23.7958 62.945L23.3978 60.1654ZM17.79 66.6309C17.79 69.0429 19.7469 70.9998 22.1589 70.9998V68.1919C21.2976 68.1919 20.5979 67.4921 20.5979 66.6309H17.79Z" fill="#333333"/>
</svg>
