<svg width="19" height="19" viewBox="0 0 19 19" fill="none" xmlns="http://www.w3.org/2000/svg">
<path d="M9.50237 0H9.49763C4.25956 0 0 4.19682 0 9.35747C0 11.4044 0.66975 13.3016 1.80856 14.8421L0.624625 18.3184L4.27619 17.1686C5.77838 18.1488 7.57031 18.7149 9.50237 18.7149C14.7404 18.7149 19 14.5169 19 9.35747C19 4.19799 14.7404 0 9.50237 0ZM15.0302 13.2139C14.801 13.8514 13.8914 14.3801 13.1658 14.5345C12.6694 14.6386 12.0211 14.7216 9.83844 13.8303C7.04662 12.6911 5.24875 9.89669 5.10862 9.71539C4.97444 9.53409 3.9805 8.23574 3.9805 6.89294C3.9805 5.55015 4.67281 4.89629 4.95188 4.61557C5.18106 4.38514 5.55988 4.27987 5.92325 4.27987C6.04081 4.27987 6.1465 4.28572 6.2415 4.2904C6.52056 4.30209 6.66069 4.31847 6.84475 4.75242C7.07394 5.29633 7.63206 6.63912 7.69856 6.77714C7.76625 6.91517 7.83394 7.10232 7.73894 7.28362C7.64988 7.47077 7.5715 7.55381 7.43138 7.71289C7.29125 7.87197 7.15825 7.99362 7.01812 8.16439C6.88987 8.31294 6.745 8.47202 6.9065 8.74689C7.068 9.01592 7.62612 9.91306 8.44788 10.6336C9.50831 11.5635 10.3681 11.8606 10.6756 11.9869C10.9048 12.0805 11.1779 12.0583 11.3454 11.8828C11.5579 11.6571 11.8204 11.2828 12.0876 10.9143C12.2776 10.65 12.5174 10.6172 12.7692 10.7108C13.0257 10.7985 14.383 11.4594 14.6621 11.5962C14.9411 11.7343 15.1252 11.7998 15.1929 11.9156C15.2594 12.0314 15.2594 12.5753 15.0302 13.2139Z" fill="white"/>
</svg>
