<svg width="15" height="11" viewBox="0 0 15 11" fill="none" xmlns="http://www.w3.org/2000/svg">
<path d="M2.66045 8.49485H0.897496C0.897496 8.49485 0 8.49349 0 9.87569C0.0426984 10.7684 0.731755 10.9111 0.854659 10.9111C0.977564 10.9111 4.44437 10.9111 4.44437 10.9111C4.44437 10.9111 5.34352 10.9122 5.38321 9.82165C5.3847 9.78004 5.38802 9.8205 5.38851 9.77867C5.39031 9.61766 5.38851 8.78544 5.38851 8.78544C5.39065 8.66702 5.48013 8.53262 5.60075 8.53262H8.41154C8.45289 8.53262 8.48867 8.56641 8.49244 8.60785L9.15638 10.1256C9.40406 10.7463 9.88564 11.2018 10.6902 10.9092C11.4518 10.6321 11.4912 10.0222 11.3568 9.59373L9.70582 4.53549C9.45765 3.93637 8.83178 3.58689 8.04847 3.58689H4.17735C2.08191 3.58689 0.324113 6.0543 2.70411 8.42623C2.72097 8.46425 2.70162 8.49485 2.66045 8.49485Z" fill="#979FAD"/>
<path d="M12.3993 5.2572C13.8356 5.2572 15 4.08034 15 2.6286C15 1.17686 13.8356 0 12.3993 0C10.963 0 9.79862 1.17686 9.79862 2.6286C9.79862 4.08034 10.963 5.2572 12.3993 5.2572Z" fill="#979FAD"/>
</svg>
