<svg xmlns="http://www.w3.org/2000/svg" width="100" height="40" viewBox="0 0 100 40"><g><g><path fill="#a8ca3f" d="M8 0h84a8 8 0 0 1 8 8v24a8 8 0 0 1-8 8H8a8 8 0 0 1-8-8V8a8 8 0 0 1 8-8z"/></g><g><path fill="#fff" d="M70.155 28.027a.525.525 0 0 1-.155-.39v-2.183a.527.527 0 0 1 .55-.545h3.85v-2.012h-3.85a.527.527 0 0 1-.55-.544v-2.54a.537.537 0 0 1 .55-.546h3.85V8.545c0-.158.052-.29.155-.392A.538.538 0 0 1 74.95 8h9.264c2.292 0 4.162.694 5.612 2.08C91.276 11.465 92 13.255 92 15.448c0 2.193-.725 3.984-2.174 5.368-1.45 1.388-3.32 2.08-5.612 2.08H78.37v2.012h8.68a.528.528 0 0 1 .55.545v2.182a.525.525 0 0 1-.55.545h-8.68v3.273c0 .16-.054.29-.163.392a.55.55 0 0 1-.386.154h-2.87a.527.527 0 0 1-.55-.546v-3.273h-3.85a.531.531 0 0 1-.396-.154zm8.215-8.76h5.5c1.215 0 2.194-.352 2.94-1.057.744-.703 1.116-1.625 1.116-2.76 0-1.137-.372-2.058-1.117-2.762-.745-.705-1.724-1.057-2.939-1.057h-5.5z"/></g></g></svg>