<svg xmlns="http://www.w3.org/2000/svg" width="100" height="40" viewBox="0 0 100 40"><g><g><path fill="#ff6b00" d="M8 0h84a8 8 0 0 1 8 8v24a8 8 0 0 1-8 8H8a8 8 0 0 1-8-8V8a8 8 0 0 1 8-8z"/></g><g><path fill="#fff" d="M73.155 28.028a.526.526 0 0 1-.155-.391v-2.182a.527.527 0 0 1 .55-.546h3.85v-2.012h-3.85a.527.527 0 0 1-.55-.544v-2.54a.537.537 0 0 1 .55-.546h3.85V8.545c0-.158.052-.29.155-.392A.539.539 0 0 1 77.95 8h9.264c2.291 0 4.162.694 5.612 2.08C94.275 11.467 95 13.256 95 15.45c0 2.192-.725 3.983-2.174 5.368-1.45 1.387-3.32 2.08-5.612 2.08H81.37v2.011h8.68a.527.527 0 0 1 .55.545v2.183a.525.525 0 0 1-.55.545h-8.68v3.273c0 .16-.054.29-.163.392a.55.55 0 0 1-.386.153h-2.87a.526.526 0 0 1-.55-.546v-3.272h-3.85a.532.532 0 0 1-.396-.154zm8.215-8.76h5.5c1.215 0 2.194-.352 2.939-1.058.745-.703 1.117-1.624 1.117-2.76 0-1.137-.372-2.058-1.117-2.762-.745-.705-1.724-1.056-2.939-1.056h-5.5z"/></g></g></svg>