<svg xmlns="http://www.w3.org/2000/svg" width="330" height="614" viewBox="0 0 330 614"><defs><mask id="4i56b" width="2" height="2" x="-1" y="-1"><path fill="#fff" d="M30 30h270v553H30z"/><path d="M45 30h51v21a8 8 0 0 0 8 8h122a8 8 0 0 0 8-8V30h51c8.284 0 15 6.716 15 15v523c0 8.284-6.716 15-15 15H45c-8.284 0-15-6.716-15-15V45c0-8.284 6.716-15 15-15z"/></mask><filter id="4i56a" width="370" height="653" x="-20" y="-20" filterUnits="userSpaceOnUse"><feOffset in="SourceGraphic" result="FeOffset1235Out"/><feGaussianBlur in="FeOffset1235Out" result="FeGaussianBlur1236Out" stdDeviation="16 16"/></filter></defs><g><g><g filter="url(#4i56a)"><path fill="none" d="M45 30h51v21a8 8 0 0 0 8 8h122a8 8 0 0 0 8-8V30h51c8.284 0 15 6.716 15 15v523c0 8.284-6.716 15-15 15H45c-8.284 0-15-6.716-15-15V45c0-8.284 6.716-15 15-15z" mask="url(&quot;#4i56b&quot;)"/><path fill="#1d5b98" fill-opacity=".1" d="M45 30h51v21a8 8 0 0 0 8 8h122a8 8 0 0 0 8-8V30h51c8.284 0 15 6.716 15 15v523c0 8.284-6.716 15-15 15H45c-8.284 0-15-6.716-15-15V45c0-8.284 6.716-15 15-15z"/></g><path fill="#a8ca3f" d="M45 30h51v21a8 8 0 0 0 8 8h122a8 8 0 0 0 8-8V30h51c8.284 0 15 6.716 15 15v523c0 8.284-6.716 15-15 15H45c-8.284 0-15-6.716-15-15V45c0-8.284 6.716-15 15-15z"/></g><g><path fill="#fff" d="M47 37h43v18c0 5.523 4.477 10 10 10h130c5.523 0 10-4.477 10-10V37h43c5.523 0 10 4.477 10 10v519c0 5.522-4.477 10-10 10H47c-5.523 0-10-4.478-10-10V47c0-5.523 4.477-10 10-10z"/></g></g></svg>