<svg xmlns="http://www.w3.org/2000/svg" width="39" height="39" viewBox="0 0 39 39"><g><g><path fill="#a3acb5" d="M14.654 26.179a11.25 11.25 0 0 1-2.708-.329h-.005a11.238 11.238 0 0 1-2.876-1.121l-.002.001a11.55 11.55 0 0 1-3.993-3.672C1.528 15.765 2.947 8.606 8.24 5.065c5.292-3.542 12.453-2.123 15.995 3.168 3.541 5.291 2.122 12.452-3.17 15.993a11.26 11.26 0 0 1-2.774 1.364h-.004a11.36 11.36 0 0 1-3.633.589zm-2.4-1.571c1.862.45 3.813.366 5.63-.236h.005a9.98 9.98 0 0 0 2.462-1.21 10.248 10.248 0 0 0 4.552-8.527c-.004-5.658-4.596-10.245-10.256-10.24C8.987 4.398 4.4 8.988 4.405 14.648a10.272 10.272 0 0 0 5.285 8.96 9.942 9.942 0 0 0 2.557.999zm26.741-1.615c-.005 6.717-5.454 12.157-12.17 12.153a12.08 12.08 0 0 1-3.78-.614 8.91 8.91 0 0 1-7.751 4.455 8.948 8.948 0 0 1-3.574-.73C7.19 36.3 5.102 31.043 7.058 26.513a14.082 14.082 0 0 1-5.991-8.125C-1 10.89 3.405 3.133 10.905 1.067 18.405-1 26.16 3.404 28.226 10.903a12.16 12.16 0 0 1 10.77 12.089zM14.654 27.46a12.1 12.1 0 0 0 1.681-.113l.024-.004c.3-.038.597-.088.894-.148.907-.186 1.79-.472 2.635-.853.745-.33 1.454-.736 2.118-1.21a12.81 12.81 0 0 0 5.459-10.483A12.811 12.811 0 0 0 14.658 1.844C7.581 1.842 1.843 7.574 1.841 14.65c0 7.075 5.736 12.81 12.812 12.81zm7.173 6.614c-.028-.012-.056-.03-.084-.042-.23-.106-.458-.222-.683-.342l-.202-.112c-.256-.144-.51-.297-.757-.462a12.224 12.224 0 0 1-4.025-4.454c-.473.05-.948.078-1.422.08a13.519 13.519 0 0 1-6.477-1.595 7.662 7.662 0 0 0 7.117 10.56 7.64 7.64 0 0 0 6.533-3.633zm15.715-9.356c.96-5.934-3.073-11.52-9.007-12.481a14.066 14.066 0 0 1-5.785 13.942h-.004a13.554 13.554 0 0 1-3.194 1.682c-.09.034-.18.063-.269.095-.207.071-.416.142-.627.202l-.287.084a15.92 15.92 0 0 1-.71.172c-.06.013-.119.03-.183.042l-.045.01c.016.027.034.054.05.083.183.307.38.603.592.89.02.027.039.057.06.084.22.29.456.571.705.837a11.403 11.403 0 0 0 .923.892c.049.042.1.08.15.122a10.485 10.485 0 0 0 3.05 1.781 10.7 10.7 0 0 0 3.863.71 10.885 10.885 0 0 0 10.718-9.147zm-19.97 9.893l.571 1.147a6.328 6.328 0 0 1-2.849.669 6.412 6.412 0 0 1-6.406-6.406h1.282a5.131 5.131 0 0 0 5.124 5.125 5.06 5.06 0 0 0 2.278-.535zm8.612-4.59h1.28v2.563h-1.28zm-3.61 1.597l-1.11-.642 1.28-2.219 1.11.642zm8.5.002l-1.28-2.22 1.109-.64 1.28 2.22zm3.75-3.283l-2.218-1.28.64-1.11 2.219 1.281zm-.954-6.002h2.563v1.282H33.87zm.954-4.715l.64 1.107-2.22 1.282-.64-1.108zm-3.923-.424l-1.11-.64 1.281-2.22 1.11.64zm-13.685 4.498H12.09a.64.64 0 1 1 0-1.28h1.922V9.792l-1.789 1.789a.642.642 0 0 1-.906-.907l2.883-2.882a.64.64 0 0 1 1.093.454v12.17h1.922a.64.64 0 1 1 0 1.279z"/></g></g></svg>