<svg xmlns="http://www.w3.org/2000/svg" width="17" height="26" viewBox="0 0 17 26"><g><g><path d="M9.654 15.139H4.725v3.294h8.523c.224 0 .41.179.41.395a.405.405 0 0 1-.41.394H4.725v6.383a.405.405 0 0 1-.41.395.405.405 0 0 1-.41-.395v-6.383H1.41a.405.405 0 0 1-.41-.394c0-.216.186-.395.41-.395h2.495V15.14H1.41a.406.406 0 0 1-.41-.395c0-.215.186-.394.41-.394h2.495V1.394c0-.215.186-.394.41-.394h5.344c1.975.042 3.818.79 5.197 2.11C16.24 4.43 17 6.183 17 8.045c0 1.874-.76 3.648-2.139 4.99a7.418 7.418 0 0 1-5.207 2.098zm-4.929-.8h4.923c3.605 0 6.531-2.825 6.531-6.298 0-3.432-2.866-6.178-6.53-6.257H4.724z"/><path fill="none" stroke="#000" stroke-linecap="round" stroke-linejoin="round" stroke-miterlimit="50" d="M9.654 15.139H4.725v3.294h8.523c.224 0 .41.179.41.395a.405.405 0 0 1-.41.394H4.725v6.383a.405.405 0 0 1-.41.395.405.405 0 0 1-.41-.395v-6.383H1.41a.405.405 0 0 1-.41-.394c0-.216.186-.395.41-.395h2.495V15.14H1.41a.406.406 0 0 1-.41-.395c0-.215.186-.394.41-.394h2.495V1.394c0-.215.186-.394.41-.394h5.344c1.975.042 3.818.79 5.197 2.11C16.24 4.43 17 6.183 17 8.045c0 1.874-.76 3.648-2.139 4.99a7.418 7.418 0 0 1-5.207 2.098zm-4.929-.8h4.923c3.605 0 6.531-2.825 6.531-6.298 0-3.432-2.866-6.178-6.53-6.257H4.724z"/></g></g></svg>