<svg xmlns="http://www.w3.org/2000/svg" width="22" height="24" viewBox="0 0 22 24"><g><g><path fill="#fff" d="M.155 20.028A.526.526 0 0 1 0 19.637v-2.182a.527.527 0 0 1 .55-.546H4.4v-2.012H.55a.527.527 0 0 1-.55-.544v-2.54a.537.537 0 0 1 .55-.546H4.4V.545c0-.158.052-.29.155-.392A.539.539 0 0 1 4.95 0h9.264c2.291 0 4.162.694 5.612 2.08C21.275 3.467 22 5.256 22 7.45c0 2.192-.725 3.983-2.174 5.368-1.45 1.387-3.32 2.08-5.612 2.08H8.37v2.011h8.68a.527.527 0 0 1 .55.545v2.183a.525.525 0 0 1-.55.545H8.37v3.273c0 .16-.054.29-.163.392a.55.55 0 0 1-.386.153H4.95a.526.526 0 0 1-.55-.546v-3.272H.55a.532.532 0 0 1-.396-.154zm8.215-8.76h5.5c1.215 0 2.194-.352 2.94-1.058.744-.703 1.116-1.624 1.116-2.76 0-1.137-.372-2.058-1.117-2.762-.745-.705-1.724-1.056-2.939-1.056h-5.5z"/></g></g></svg>