<svg width="295" height="185" viewBox="0 0 295 185" fill="none" xmlns="http://www.w3.org/2000/svg">
<path d="M78.9344 74V75H79.9344H99.3344H100.334V74V55H108.934C117.787 55 125.554 52.788 131.13 48.3714C136.736 43.9314 140.034 37.3343 140.034 28.8C140.034 20.6884 137.078 14.1942 131.764 9.74565C126.472 5.31592 118.945 2.99998 109.934 2.99998H79.9344H78.9344V3.99998V74ZM146.22 74V75H147.22H166.62H167.62V74V53.8H174.584L188.387 74.5538L188.684 75H189.22H211.62H213.516L212.445 73.4352L196.421 50.0228C204.825 46.0566 210.32 38.7819 210.32 28.1C210.32 20.7826 208.146 15.1117 203.827 10.7929C198.879 5.8451 191.185 2.99998 180.32 2.99998H147.22H146.22V3.99998V74ZM100.334 37.8V21.3H108.434C111.799 21.3 114.346 22.0711 116.032 23.4289C117.686 24.7603 118.634 26.7537 118.634 29.5C118.634 32.0858 117.692 34.1193 116.027 35.5229C114.343 36.943 111.82 37.8 108.534 37.8H100.334ZM167.62 36.6V21.8H179.32C182.446 21.8 184.825 22.4762 186.399 23.6815C187.933 24.8556 188.82 26.6191 188.82 29.1C188.82 31.4918 187.974 33.3175 186.459 34.5657C184.918 35.835 182.571 36.6 179.42 36.6H167.62ZM254.295 76.4C276.424 76.4 293.095 59.6751 293.095 39C293.095 18.1282 276.627 1.59998 254.495 1.59998C232.365 1.59998 215.695 18.3249 215.695 39C215.695 59.8717 232.162 76.4 254.295 76.4ZM254.495 56.9C244.534 56.9 237.595 48.6388 237.595 39C237.595 29.1525 244.342 21.1 254.295 21.1C264.359 21.1 271.295 29.365 271.295 39C271.295 48.8435 264.551 56.9 254.495 56.9Z" stroke="#FED233" stroke-width="2"/>
<path d="M70.3463 167.187L70.9384 166.371L70.117 165.785L55.517 155.385L54.7576 154.845L54.1648 155.564C52.0964 158.076 50.0579 160.1 47.6898 161.502C45.3396 162.893 42.6171 163.7 39.1368 163.7C30.008 163.7 23.4368 156.075 23.4368 146C23.4368 136.022 30.0112 128.3 39.1368 128.3C45.4494 128.3 49.8864 131.188 53.7559 136.025L54.3709 136.793L55.1492 136.191L69.3492 125.191L70.1129 124.599L69.5479 123.815C63.1856 114.99 53.9996 108.6 39.3368 108.6C17.5881 108.6 1.43677 125.044 1.43677 146C1.43677 167.661 17.9936 183.4 38.5368 183.4C46.4384 183.4 52.7112 181.69 57.8655 178.784C63.0138 175.88 66.9896 171.815 70.3463 167.187ZM158.036 181V182H159.036H185.636C198.434 182 208.668 178.188 215.713 171.711C222.763 165.229 226.536 156.152 226.536 145.8C226.536 135.353 222.816 126.372 215.834 120.011C208.861 113.657 198.726 110 186.036 110H159.036H158.036V111V181ZM234.501 181V182H235.501H292.301H293.301V181V164.5V163.5H292.301H255.701V154.4H288.301H289.301V153.4V138.1V137.1H288.301H255.701V128.5H291.801H292.801V127.5V111V110H291.801H235.501H234.501V111V181ZM111.131 183.4C133.26 183.4 149.931 166.675 149.931 146C149.931 125.128 133.463 108.6 111.331 108.6C89.2013 108.6 72.5305 125.325 72.5305 146C72.5305 166.872 88.9979 183.4 111.131 183.4ZM111.331 163.9C101.37 163.9 94.4305 155.639 94.4305 146C94.4305 136.153 101.178 128.1 111.131 128.1C121.195 128.1 128.131 136.365 128.131 146C128.131 155.843 121.387 163.9 111.331 163.9ZM179.436 162.8V129H186.336C191.948 129 196.512 130.619 199.662 133.489C202.801 136.349 204.636 140.541 204.636 145.9C204.636 151.415 202.798 155.602 199.667 158.419C196.522 161.25 191.959 162.8 186.336 162.8H179.436Z" stroke="white" stroke-width="2"/>
</svg>
