<svg width="21" height="30" viewBox="0 0 21 30" fill="none" xmlns="http://www.w3.org/2000/svg">
<path d="M10.5 0C4.71019 0 0 4.81289 0 10.7285V19.2718C0 25.1874 4.71019 30 10.5 30C16.2895 30 21 25.202 21 19.3046V10.7285C21 4.81289 16.2895 0 10.5 0ZM19.025 19.3046C19.025 24.1066 15.2009 28.0133 10.5 28.0133C5.79936 28.0133 1.97496 24.0918 1.97496 19.2715V10.7285C1.97496 5.90824 5.79936 1.98674 10.5 1.98674C15.201 1.98674 19.025 5.90824 19.025 10.7285V19.3046Z" fill="white"/>
<path d="M10.5001 8.21191C9.95465 8.21191 9.51257 8.65664 9.51257 9.20531V12.6821C9.51257 13.2308 9.95465 13.6755 10.5001 13.6755C11.0455 13.6755 11.4875 13.2308 11.4875 12.6821V9.20531C11.4875 8.65664 11.0455 8.21191 10.5001 8.21191Z" fill="white"/>
</svg>
